<svg width="28" height="24" viewBox="0 0 28 24" fill="none" xmlns="http://www.w3.org/2000/svg">
<path d="M10.9786 0L28 4.69329L25.0511 16.0185L22.8605 15.4145V24H0V6.81222H9.20477L10.9786 0ZM21.7059 8.00032H1.15457V22.8119H21.7059V8.00032ZM11.4907 0.912695L9.95454 6.81222H11.2848C11.1999 6.60874 11.2284 6.43037 11.2574 6.22324C11.3952 5.75814 11.7012 5.55157 12.1515 5.48726C12.3763 5.50136 12.2808 5.48544 12.44 5.5206C12.9552 5.66262 13.2608 6.20748 13.1228 6.73753C13.106 6.79187 13.1138 6.767 13.0996 6.81222H14.4287L14.479 6.62284L15.1528 6.81222H22.8605V8.97836L24.1664 9.3454L23.9756 10.0643L22.8605 9.75086V12.0684L23.4167 12.2247L23.2259 12.9436L22.8605 12.8409V14.643L24.539 15.1058L27.1131 5.22025L11.4907 0.912695Z" fill="#535B81"/>
<path d="M15.2601 3.54443L24.9475 6.26699L24.7567 6.98587L15.0693 4.26331L15.2601 3.54443Z" fill="#535B81"/>
<path d="M12.7149 4.46482C12.1998 4.3228 11.8941 3.77794 12.0322 3.24789C12.1702 2.71784 12.6996 2.40331 13.2148 2.54533C13.7299 2.68735 14.0355 3.23221 13.8975 3.76226C13.7595 4.29231 13.23 4.60683 12.7149 4.46482Z" fill="#535B81"/>
<path d="M16.4173 10.3905L17.5494 11.4639C17.4903 11.5299 17.4903 11.5299 17.2245 11.8267C16.8702 12.2225 16.8702 12.2225 16.3682 12.7831C15.5449 13.7025 14.7216 14.6219 13.8983 15.5414C12.9891 16.5567 12.08 17.5721 11.1708 18.5874C10.6688 19.148 10.6688 19.148 10.3144 19.5437C10.0487 19.8406 10.0487 19.8406 9.98963 19.9065L9.43236 20.5288L8.86577 19.9156C8.83922 19.8869 8.83922 19.8869 8.71968 19.7575C8.56035 19.5851 8.56035 19.5851 8.33467 19.3408C7.80357 18.766 7.80357 18.766 7.16625 18.0763C6.529 17.3866 6.529 17.3866 5.9979 16.8118C5.77214 16.5676 5.77214 16.5676 5.61281 16.3951C5.49335 16.2658 5.49335 16.2658 5.4668 16.237L6.58242 15.1455C6.60897 15.1743 6.60897 15.1743 6.72843 15.3035C6.88776 15.4759 6.88776 15.4759 7.11352 15.7202C7.46551 16.1012 7.81758 16.4822 8.16957 16.8632C8.58467 17.3124 8.9997 17.7616 9.41473 18.2108C9.62271 17.9785 9.83076 17.7462 10.0387 17.5139C11.2199 16.1948 11.2199 16.1948 12.6374 14.6118C14.0548 13.0288 14.0548 13.0288 15.236 11.7097C15.7381 11.149 15.7381 11.149 16.0924 10.7533C16.3582 10.4565 16.3582 10.4565 16.4173 10.3905Z" fill="#535B81"/>
</svg>
