<svg width="29" height="27" viewBox="0 0 29 27" fill="none" xmlns="http://www.w3.org/2000/svg">
<path d="M-0.000244141 15.8881V25.7128C-0.000244141 26.0266 0.251139 26.2811 0.561797 26.2811H5.16201C5.47267 26.2811 5.72405 26.0266 5.72405 25.7128V25.1878L17.3868 26.2786C17.4038 26.2802 17.4213 26.2811 17.4384 26.2811C17.5207 26.2811 17.6025 26.2627 17.6777 26.2269L27.0619 21.7604C27.8485 21.3863 28.2624 20.4965 28.045 19.6447C27.9188 19.1502 27.5911 18.7285 27.1459 18.4874C26.7019 18.2466 26.1733 18.2049 25.6958 18.3717L19.046 20.7059C19.0517 20.6452 19.0642 20.5865 19.0642 20.5243C19.0642 19.4496 18.1997 18.5754 17.1365 18.5754H15.6693C14.5518 18.5754 13.4738 18.238 12.5522 17.5995C11.4429 16.8307 10.1453 16.4245 8.80003 16.4245H5.72405V15.8881C5.72405 15.5743 5.47267 15.3199 5.16201 15.3199H0.561797C0.251139 15.3199 -0.000244141 15.5743 -0.000244141 15.8881ZM5.72405 17.561H8.80003C9.91755 17.561 10.995 17.8984 11.9166 18.5371C13.0264 19.3056 14.324 19.7118 15.6693 19.7118H17.1365C17.5794 19.7118 17.94 20.0764 17.94 20.5243C17.94 20.8476 17.7509 21.1249 17.48 21.2556L17.2956 21.3204C17.2441 21.3309 17.1909 21.3367 17.1365 21.3367H12.2344C11.9237 21.3367 11.6723 21.5911 11.6723 21.9049C11.6723 22.2187 11.9237 22.4732 12.2344 22.4732H17.1365C17.2958 22.4732 17.4482 22.4479 17.5964 22.4109C17.6076 22.4077 17.6188 22.4102 17.6299 22.4063L17.7921 22.3494C17.8291 22.3357 17.8677 22.3261 17.9036 22.3102L26.0646 19.4455C26.2485 19.3803 26.4439 19.3967 26.6152 19.4893C26.787 19.5823 26.9083 19.7382 26.9566 19.9286C27.0394 20.2521 26.8825 20.59 26.5833 20.7321L17.3373 25.1327L5.72405 24.0467V17.561ZM1.12384 16.4564H4.59993V25.1446H1.12384V16.4564Z" fill="#535B81"/>
<path d="M18.9684 -6.10352e-05C14.6295 -6.10352e-05 11.0996 3.5687 11.0996 7.95538C11.0996 12.3421 14.6295 15.9108 18.9684 15.9108C23.3074 15.9108 26.8372 12.3421 26.8372 7.95538C26.8372 3.5687 23.3074 -6.10352e-05 18.9684 -6.10352e-05ZM18.9684 14.7743C15.2492 14.7743 12.2237 11.7153 12.2237 7.95538C12.2237 4.19547 15.2492 1.13643 18.9684 1.13643C22.6877 1.13643 25.7131 4.19547 25.7131 7.95538C25.7131 11.7153 22.6877 14.7743 18.9684 14.7743Z" fill="#535B81"/>
<path d="M19.0112 2.93606C18.1972 2.92997 17.4409 3.23463 16.8656 3.80812C16.2898 4.38166 15.9731 5.14745 15.9731 5.96429C15.9731 6.27807 16.2245 6.5325 16.5352 6.5325C16.8458 6.5325 17.0973 6.27807 17.0973 5.96429C17.0973 5.45403 17.2954 4.97569 17.6549 4.61719C18.0139 4.25874 18.4887 4.04758 18.9958 4.07254C19.9816 4.08616 20.8264 4.94018 20.8401 5.93708C20.8511 6.72063 20.395 7.41872 19.6786 7.71586C18.9058 8.03578 18.4069 8.81016 18.4069 9.6886V10.6081C18.4069 10.9219 18.6583 11.1763 18.9689 11.1763C19.2796 11.1763 19.531 10.9219 19.531 10.6081V9.6886C19.531 9.27963 19.7615 8.90951 20.1051 8.76745C21.2518 8.29188 21.9812 7.17484 21.9642 5.92126C21.9417 4.29756 20.6172 2.95856 19.0112 2.93606Z" fill="#535B81"/>
<path d="M18.8587 11.8482C18.8252 11.854 18.7857 11.8654 18.7523 11.8823C18.7182 11.8937 18.6847 11.9109 18.6567 11.9336C18.6227 11.9564 18.5947 11.9791 18.5722 12.0016C18.4657 12.1099 18.4092 12.2575 18.4092 12.4054C18.4092 12.4792 18.4207 12.553 18.4487 12.6213C18.4767 12.6951 18.5217 12.7575 18.5722 12.8089C18.5947 12.8372 18.6227 12.8599 18.6567 12.8769C18.6847 12.8996 18.7182 12.9168 18.7523 12.9337C18.7857 12.9451 18.8252 12.9565 18.8587 12.9623C18.8928 12.9737 18.9323 12.9737 18.9713 12.9737C19.1173 12.9737 19.2638 12.9168 19.3648 12.8089C19.4208 12.7575 19.4603 12.6951 19.4883 12.6213C19.5169 12.553 19.5333 12.4792 19.5333 12.4054C19.5333 12.2575 19.4719 12.1099 19.3648 12.0016C19.2358 11.8709 19.0443 11.8143 18.8587 11.8482Z" fill="#535B81"/>
</svg>
