<svg width="27" height="28" viewBox="0 0 27 28" fill="none" xmlns="http://www.w3.org/2000/svg">
<path d="M3.14971 9.33336H15.7497C15.869 9.33336 15.9835 9.28419 16.0679 9.19667C16.1523 9.10916 16.1997 8.99046 16.1997 8.86669C16.1997 8.74292 16.1523 8.62422 16.0679 8.53671C15.9835 8.44919 15.869 8.40002 15.7497 8.40002H3.14971C3.03036 8.40002 2.9159 8.44919 2.83151 8.53671C2.74712 8.62422 2.69971 8.74292 2.69971 8.86669C2.69971 8.99046 2.74712 9.10916 2.83151 9.19667C2.9159 9.28419 3.03036 9.33336 3.14971 9.33336Z" fill="#535B81"/>
<path d="M3.14971 12.1333H13.9497C14.069 12.1333 14.1835 12.0841 14.2679 11.9966C14.3523 11.9091 14.3997 11.7904 14.3997 11.6666C14.3997 11.5429 14.3523 11.4242 14.2679 11.3366C14.1835 11.2491 14.069 11.2 13.9497 11.2H3.14971C3.03036 11.2 2.9159 11.2491 2.83151 11.3366C2.74712 11.4242 2.69971 11.5429 2.69971 11.6666C2.69971 11.7904 2.74712 11.9091 2.83151 11.9966C2.9159 12.0841 3.03036 12.1333 3.14971 12.1333Z" fill="#535B81"/>
<path d="M11.6997 14.4667C11.6997 14.3429 11.6523 14.2242 11.5679 14.1367C11.4835 14.0492 11.369 14 11.2497 14H3.14971C3.03036 14 2.9159 14.0492 2.83151 14.1367C2.74712 14.2242 2.69971 14.3429 2.69971 14.4667C2.69971 14.5904 2.74712 14.7091 2.83151 14.7967C2.9159 14.8842 3.03036 14.9333 3.14971 14.9333H11.2497C11.369 14.9333 11.4835 14.8842 11.5679 14.7967C11.6523 14.7091 11.6997 14.5904 11.6997 14.4667Z" fill="#535B81"/>
<path d="M10.3497 16.8H3.14971C3.03036 16.8 2.9159 16.8492 2.83151 16.9367C2.74712 17.0242 2.69971 17.1429 2.69971 17.2667C2.69971 17.3905 2.74712 17.5092 2.83151 17.5967C2.9159 17.6842 3.03036 17.7334 3.14971 17.7334H10.3497C10.469 17.7334 10.5835 17.6842 10.6679 17.5967C10.7523 17.5092 10.7997 17.3905 10.7997 17.2667C10.7997 17.1429 10.7523 17.0242 10.6679 16.9367C10.5835 16.8492 10.469 16.8 10.3497 16.8Z" fill="#535B81"/>
<path d="M8.5501 6.53331H15.7501C15.8694 6.53331 15.9839 6.48414 16.0683 6.39663C16.1527 6.30911 16.2001 6.19041 16.2001 6.06664C16.2001 5.94287 16.1527 5.82418 16.0683 5.73666C15.9839 5.64914 15.8694 5.59998 15.7501 5.59998H8.5501C8.43075 5.59998 8.31629 5.64914 8.2319 5.73666C8.14751 5.82418 8.1001 5.94287 8.1001 6.06664C8.1001 6.19041 8.14751 6.30911 8.2319 6.39663C8.31629 6.48414 8.43075 6.53331 8.5501 6.53331Z" fill="#535B81"/>
<path d="M9.4497 19.6H3.14971C3.03036 19.6 2.9159 19.6491 2.83151 19.7367C2.74712 19.8242 2.69971 19.9429 2.69971 20.0666C2.69971 20.1904 2.74712 20.3091 2.83151 20.3966C2.9159 20.4841 3.03036 20.5333 3.14971 20.5333H9.4497C9.56905 20.5333 9.68351 20.4841 9.7679 20.3966C9.85229 20.3091 9.8997 20.1904 9.8997 20.0666C9.8997 19.9429 9.85229 19.8242 9.7679 19.7367C9.68351 19.6491 9.56905 19.6 9.4497 19.6Z" fill="#535B81"/>
<path d="M25.9165 8.86019L26.2394 8.5253C26.6605 8.08753 26.8968 7.49431 26.8965 6.87597C26.8961 6.25763 26.6591 5.66472 26.2374 5.22749C25.8158 4.79026 25.2441 4.54446 24.6478 4.54409C24.0516 4.54372 23.4796 4.7888 23.0574 5.2255L22.4212 5.88548L21.6 6.73715V3.26667C21.6 3.1429 21.5526 3.0242 21.4682 2.93668C21.3838 2.84917 21.2693 2.8 21.15 2.8H18.9V0.466667C18.9 0.342899 18.8526 0.2242 18.7682 0.136683C18.6838 0.0491665 18.5693 3.09824e-10 18.45 3.09823e-10H5.85C5.7909 -2.23274e-06 5.73238 0.0120665 5.67778 0.0355173C5.62319 0.058968 5.57358 0.0933415 5.53179 0.136675L0.131794 5.73668C0.0900078 5.78001 0.056862 5.83146 0.0342488 5.88808C0.0116356 5.9447 -2.15299e-06 6.00538 2.98758e-10 6.06667V24.7333C2.98758e-10 24.8571 0.0474105 24.9758 0.131802 25.0633C0.216193 25.1508 0.330652 25.2 0.45 25.2H2.7V27.5333C2.7 27.6571 2.74741 27.7758 2.8318 27.8633C2.91619 27.9508 3.03065 28 3.15 28H21.15C21.2693 28 21.3838 27.9508 21.4682 27.8633C21.5526 27.7758 21.6 27.6571 21.6 27.5333V13.3366L25.2801 9.52L25.9136 10.181L22.4082 13.794C22.3659 13.8371 22.3323 13.8884 22.3092 13.9451C22.2861 14.0017 22.2741 14.0625 22.2737 14.124C22.2734 14.1855 22.2848 14.2465 22.3072 14.3034C22.3297 14.3603 22.3628 14.412 22.4046 14.4557C22.4464 14.4993 22.4961 14.5339 22.5508 14.5575C22.6055 14.5811 22.6642 14.5933 22.7235 14.5933C22.7828 14.5934 22.8415 14.5812 22.8963 14.5577C22.9511 14.5341 23.0008 14.4995 23.0426 14.4559L26.8672 10.514C26.9091 10.4708 26.9424 10.4195 26.9652 10.3629C26.988 10.3064 26.9998 10.2457 27 10.1844C27.0002 10.1231 26.9887 10.0624 26.9663 10.0057C26.9438 9.94903 26.9108 9.89748 26.8691 9.85402L25.9165 8.86019ZM15.732 18.102L13.8287 16.116L17.6481 12.1551L19.5573 14.135L15.732 18.102ZM14.8983 18.5558L12.6258 19.3317L13.3875 16.9798L14.8983 18.5558ZM20.1937 13.475L18.2845 11.4951L22.7395 6.87511L24.6487 8.85535L20.1937 13.475ZM23.6939 5.88537C23.9473 5.624 24.2903 5.4775 24.6477 5.47801C25.0051 5.47851 25.3478 5.62597 25.6005 5.88806C25.8532 6.15014 25.9954 6.50546 25.9959 6.8761C25.9964 7.24674 25.8551 7.60246 25.6031 7.86526L25.2849 8.19525L23.3757 6.21536L23.6939 5.88537ZM20.7 3.73333V7.67031L18.9 9.53697V3.73333H20.7ZM5.4 1.59326V5.6H1.53636L5.4 1.59326ZM0.899999 6.53333H5.85C5.96934 6.53333 6.0838 6.48417 6.16819 6.39665C6.25258 6.30913 6.3 6.19043 6.3 6.06667V0.933333H18V10.4703L12.8751 15.785L12.8757 15.7856C12.8264 15.8363 12.7891 15.8982 12.7667 15.9664L11.4862 19.918C11.4596 20.0001 11.4556 20.0883 11.4745 20.1726C11.4935 20.257 11.5347 20.3342 11.5936 20.3957C11.6525 20.4571 11.7267 20.5003 11.8079 20.5205C11.8891 20.5407 11.9741 20.5371 12.0535 20.51L15.8718 19.2062C15.9421 19.1821 16.0057 19.1402 16.0567 19.0844L16.0571 19.0849L18 17.0699V24.2667H0.899999V6.53333ZM20.7 27.0667H3.6V25.2H18.45C18.5693 25.2 18.6838 25.1508 18.7682 25.0633C18.8526 24.9758 18.9 24.8571 18.9 24.7333V16.1366L20.7 14.2699V27.0667Z" fill="#535B81"/>
</svg>
