<svg width="26" height="26" viewBox="0 0 26 26" fill="none" xmlns="http://www.w3.org/2000/svg">
<path d="M25.5667 0H20.8H12.1333H7.36667C7.12736 0 6.93333 0.200717 6.93333 0.448276V7.40454C5.42111 7.95246 4.33333 9.42271 4.33333 11.1509C4.33333 13.352 6.75137 16.1379 8.23333 16.1379C9.7153 16.1379 12.1333 13.352 12.1333 11.1509C12.1333 8.9572 10.3837 7.17241 8.23333 7.17241C8.0867 7.17241 7.94248 7.18232 7.8 7.19849V0.896552H11.7V3.13793C11.7 3.87951 12.2831 4.48276 13 4.48276H19.9333C20.6502 4.48276 21.2333 3.87951 21.2333 3.13793V0.896552H25.1333V25.1034H23.8333V24.2069C23.8333 22.7237 22.6671 21.5172 21.2333 21.5172C19.7996 21.5172 18.6333 22.7237 18.6333 24.2069V25.1034H16.4667V21.9246C16.4667 20.1424 15.3603 18.5927 13.7135 18.0685L10.5274 17.0544C10.5272 17.0543 10.527 17.0543 10.5267 17.0543C10.5243 17.0535 10.5217 17.0539 10.5192 17.0531C10.4804 17.0416 10.4404 17.0345 10.4 17.0345H6.06667C6.02739 17.0345 5.98859 17.0417 5.95077 17.0526C5.94693 17.0537 5.94305 17.0532 5.93924 17.0544L2.75319 18.0685C1.1064 18.5927 0 20.1424 0 21.9246V25.5517C0 25.7993 0.194027 26 0.433333 26H16.0333H19.0667H23.4H25.5667C25.806 26 26 25.7993 26 25.5517V0.448276C26 0.200717 25.806 0 25.5667 0ZM8.23333 8.06897C9.90594 8.06897 11.2667 9.45144 11.2667 11.1509C11.2667 12.9072 9.18548 15.2414 8.23333 15.2414C7.28119 15.2414 5.2 12.9072 5.2 11.1509C5.2 9.45144 6.56073 8.06897 8.23333 8.06897ZM20.3667 3.13793C20.3667 3.38505 20.1722 3.58621 19.9333 3.58621H13C12.7611 3.58621 12.5667 3.38505 12.5667 3.13793V0.896552H20.3667V3.13793ZM9.47488 17.931L8.23333 19.4722L6.99178 17.931H9.47488ZM15.6 25.1034H13V23.7586C13 23.5111 12.806 23.3103 12.5667 23.3103C12.3274 23.3103 12.1333 23.5111 12.1333 23.7586V25.1034H4.33333V23.7586C4.33333 23.5111 4.13931 23.3103 3.9 23.3103C3.66069 23.3103 3.46667 23.5111 3.46667 23.7586V25.1034H0.866667V21.9246C0.866667 20.5384 1.7272 19.333 3.00794 18.9252L5.91848 17.9989L7.9005 20.4594C7.98281 20.5616 8.10469 20.6207 8.23333 20.6207C8.36198 20.6207 8.48385 20.5616 8.56616 20.4594L10.5482 17.9989L13.4587 18.9252C14.7395 19.333 15.6 20.5384 15.6 21.9246V25.1034ZM22.9667 25.1034H19.5V24.2069C19.5 23.2182 20.2776 22.4138 21.2333 22.4138C22.1891 22.4138 22.9667 23.2182 22.9667 24.2069V25.1034Z" fill="#535B81"/>
<path d="M12.5667 13.4483V14.7931C12.5667 15.0406 12.7607 15.2414 13 15.2414H17.3333C17.5726 15.2414 17.7667 15.0406 17.7667 14.7931V13.4483C17.7667 11.9651 16.6004 10.7586 15.1667 10.7586C13.7329 10.7586 12.5667 11.9651 12.5667 13.4483ZM13.4333 13.4483C13.4333 12.4596 14.2109 11.6552 15.1667 11.6552C16.1224 11.6552 16.9 12.4596 16.9 13.4483V14.3448H13.4333V13.4483Z" fill="#535B81"/>
<path d="M16.9 8.06898C16.9 7.08028 16.1224 6.27588 15.1667 6.27588C14.2109 6.27588 13.4333 7.08028 13.4333 8.06898C13.4333 9.05768 14.2109 9.86209 15.1667 9.86209C16.1224 9.86209 16.9 9.05768 16.9 8.06898ZM14.3 8.06898C14.3 7.57452 14.6887 7.17243 15.1667 7.17243C15.6447 7.17243 16.0333 7.57452 16.0333 8.06898C16.0333 8.56344 15.6447 8.96553 15.1667 8.96553C14.6887 8.96553 14.3 8.56344 14.3 8.06898Z" fill="#535B81"/>
<path d="M18.6333 13.4483V14.7931C18.6333 15.0406 18.8273 15.2414 19.0666 15.2414H23.4C23.6393 15.2414 23.8333 15.0406 23.8333 14.7931V13.4483C23.8333 11.9651 22.667 10.7586 21.2333 10.7586C19.7996 10.7586 18.6333 11.9651 18.6333 13.4483ZM19.5 13.4483C19.5 12.4596 20.2776 11.6552 21.2333 11.6552C22.189 11.6552 22.9666 12.4596 22.9666 13.4483V14.3448H19.5V13.4483Z" fill="#535B81"/>
<path d="M22.9667 8.06898C22.9667 7.08028 22.1891 6.27588 21.2333 6.27588C20.2776 6.27588 19.5 7.08028 19.5 8.06898C19.5 9.05768 20.2776 9.86209 21.2333 9.86209C22.1891 9.86209 22.9667 9.05768 22.9667 8.06898ZM20.3667 8.06898C20.3667 7.57452 20.7554 7.17243 21.2333 7.17243C21.7113 7.17243 22.1 7.57452 22.1 8.06898C22.1 8.56344 21.7113 8.96553 21.2333 8.96553C20.7554 8.96553 20.3667 8.56344 20.3667 8.06898Z" fill="#535B81"/>
<path d="M19.5 18.8276C19.5 19.8163 20.2776 20.6207 21.2333 20.6207C22.1891 20.6207 22.9667 19.8163 22.9667 18.8276C22.9667 17.8389 22.1891 17.0345 21.2333 17.0345C20.2776 17.0345 19.5 17.8389 19.5 18.8276ZM22.1 18.8276C22.1 19.322 21.7113 19.7241 21.2333 19.7241C20.7554 19.7241 20.3667 19.322 20.3667 18.8276C20.3667 18.3331 20.7554 17.931 21.2333 17.931C21.7113 17.931 22.1 18.3331 22.1 18.8276Z" fill="#535B81"/>
</svg>
