<svg width="26" height="27" viewBox="0 0 26 27" fill="none" xmlns="http://www.w3.org/2000/svg">
<path d="M8.41349 17.9073C9.48334 17.9073 10.5644 17.6981 11.6016 17.2728C11.6051 17.2714 11.6085 17.2701 11.612 17.2687C11.635 17.2592 11.6584 17.2512 11.6814 17.2415L13.8262 17.7158C14.0034 17.754 14.1873 17.7001 14.315 17.571L16.5477 15.3166C16.6756 15.1876 16.7297 15.0015 16.6909 14.823L16.2214 12.6571C16.2288 12.639 16.2343 12.6205 16.2416 12.6024C16.3001 12.4576 16.3541 12.3113 16.4043 12.164C16.4403 12.0597 16.4726 11.955 16.5044 11.8501C16.5148 11.8154 16.5247 11.7807 16.5346 11.746C17.2331 9.33437 16.8447 6.77413 15.4846 4.6992C15.471 4.67841 15.4565 4.65812 15.4427 4.63743C15.3323 4.47214 15.216 4.31014 15.0932 4.1515C15.0372 4.07874 14.9806 4.0063 14.9219 3.93501C14.8674 3.86905 14.8121 3.80371 14.7554 3.73909C14.6702 3.64191 14.582 3.54655 14.4918 3.45247C14.4604 3.4198 14.4321 3.38515 14.4002 3.35289C12.8065 1.74344 10.6876 0.857178 8.43372 0.857178C6.17994 0.857178 4.06108 1.74344 2.46736 3.35289C-0.822454 6.67493 -0.822454 12.0804 2.46736 15.4025C4.09218 17.0431 6.22957 17.9073 8.41349 17.9073ZM15.5918 14.7659L13.7697 16.6057L13.1189 16.4618C13.5708 16.1568 14.0003 15.804 14.399 15.4014C14.7978 14.9988 15.1472 14.565 15.4492 14.1085L15.5918 14.7659ZM13.6484 14.6434C10.7728 17.5467 6.09453 17.5464 3.21918 14.6434C0.343958 11.7399 0.343958 7.01546 3.21918 4.11195C4.65685 2.66032 6.54528 1.93451 8.43371 1.93451C10.3223 1.93451 12.2107 2.66032 13.6484 4.11195C16.5236 7.01546 16.5236 11.7399 13.6484 14.6434Z" fill="#50577B"/>
<path d="M14.7462 18.763L21.0212 25.9388C21.5092 26.4968 22.2119 26.83 22.9489 26.8531C22.9763 26.8541 23.0035 26.8544 23.031 26.8544C23.7392 26.8544 24.4271 26.568 24.9289 26.061C25.4502 25.5347 25.7361 24.806 25.7133 24.0616C25.6905 23.3175 25.3605 22.6079 24.8079 22.1151L17.7014 15.7789C17.4913 15.5915 17.173 15.6014 16.9747 15.8017L14.7688 18.0291C14.5705 18.2293 14.5606 18.5507 14.7462 18.763ZM24.1049 22.9186C24.4439 23.2209 24.6381 23.6386 24.6521 24.0949C24.6661 24.5513 24.4979 24.9803 24.1783 25.303C23.8587 25.6258 23.4395 25.7941 22.9818 25.7815C22.53 25.7674 22.1163 25.5713 21.8169 25.229L15.8722 18.4308L17.3726 16.9159L24.1049 22.9186Z" fill="#50577B"/>
<path d="M5.94371 3.72164C5.18748 4.06453 4.51899 4.55032 3.95704 5.16595C3.75823 5.38346 3.77184 5.72268 3.9875 5.92344C4.0895 6.01845 4.21845 6.06531 4.34714 6.06531C4.49022 6.06531 4.63292 6.0072 4.7375 5.89256C5.20174 5.38425 5.75384 4.98299 6.37839 4.70004C6.64589 4.57859 6.76538 4.26162 6.64537 3.9915C6.5251 3.72138 6.2112 3.60071 5.94371 3.72164Z" fill="#50577B"/>
<path d="M8.91506 3.20458C8.61957 3.18311 8.36724 3.40219 8.34443 3.69718C8.32149 3.99243 8.53987 4.25025 8.83212 4.27354C10.9686 4.44263 12.7648 5.96311 13.3016 8.05707C13.3634 8.29866 13.5789 8.45911 13.8151 8.45911C13.8591 8.45911 13.9038 8.45335 13.9484 8.44183C14.2322 8.3675 14.4028 8.07513 14.3293 7.78852C13.6791 5.25168 11.5032 3.40952 8.91506 3.20458Z" fill="#50577B"/>
</svg>
