<svg width="25" height="29" viewBox="0 0 25 29" fill="none" xmlns="http://www.w3.org/2000/svg">
<path d="M3.04197 15.6184C3.04197 15.5301 3.11889 15.4586 3.21384 15.4586H21.7179C21.8128 15.4586 21.8898 15.5301 21.8898 15.6184C21.8898 15.7067 21.8128 15.7783 21.7179 15.7783H3.21349C3.11855 15.7783 3.04197 15.7067 3.04197 15.6184ZM3.21349 8.10905H21.7176C21.8125 8.10905 21.8894 8.03751 21.8894 7.94922C21.8894 7.86093 21.8125 7.7894 21.7176 7.7894H3.21349C3.11855 7.7894 3.04162 7.86093 3.04162 7.94922C3.04162 8.03751 3.11855 8.10905 3.21349 8.10905ZM3.21349 13.861H21.7176C21.8125 13.861 21.8894 13.7895 21.8894 13.7012C21.8894 13.6129 21.8125 13.5414 21.7176 13.5414H3.21349C3.11855 13.5414 3.04162 13.6129 3.04162 13.7012C3.04197 13.7895 3.11855 13.861 3.21349 13.861ZM3.21349 11.9435H21.7176C21.8125 11.9435 21.8894 11.872 21.8894 11.7837C21.8894 11.6954 21.8125 11.6238 21.7176 11.6238H3.21349C3.11855 11.6238 3.04162 11.6954 3.04162 11.7837C3.04162 11.872 3.11855 11.9435 3.21349 11.9435ZM3.21349 10.0263H21.7176C21.8125 10.0263 21.8894 9.95473 21.8894 9.86644C21.8894 9.77816 21.8125 9.70662 21.7176 9.70662H3.21349C3.11855 9.70662 3.04162 9.77816 3.04162 9.86644C3.04197 9.95473 3.11855 10.0263 3.21349 10.0263ZM3.21349 6.1915H21.7176C21.8125 6.1915 21.8894 6.11997 21.8894 6.03168C21.8894 5.94339 21.8125 5.87186 21.7176 5.87186H3.21349C3.11855 5.87186 3.04162 5.94339 3.04162 6.03168C3.04197 6.11997 3.11855 6.1915 3.21349 6.1915ZM3.21349 4.27428H21.7176C21.8125 4.27428 21.8894 4.20274 21.8894 4.11446C21.8894 4.02617 21.8125 3.95463 21.7176 3.95463H3.21349C3.11855 3.95463 3.04162 4.02617 3.04162 4.11446C3.04162 4.20274 3.11855 4.27428 3.21349 4.27428ZM21.9085 24.9203C21.9754 24.9829 21.9754 25.0837 21.9085 25.1462C21.8749 25.1775 21.8309 25.1933 21.7869 25.1933C21.7429 25.1933 21.6988 25.1775 21.6652 25.1462L18.528 22.2295C17.9538 22.7086 17.2217 22.9738 16.4444 22.9738C15.609 22.9738 14.8238 22.6716 14.2334 22.1222C13.6429 21.5728 13.3172 20.8423 13.3172 20.0657C13.3172 19.2892 13.6426 18.5584 14.2334 18.0093C14.8242 17.4603 15.6097 17.1574 16.4448 17.1574C17.2799 17.1574 18.0654 17.4599 18.6558 18.0093C19.834 19.1052 19.87 20.8636 18.7709 22.0039L21.9085 24.9203ZM18.4133 18.2349C17.8876 17.7457 17.1887 17.4764 16.4451 17.4764C15.7015 17.4764 15.0023 17.7457 14.4766 18.2349C13.951 18.724 13.661 19.3739 13.661 20.0654C13.661 20.7569 13.9506 21.4072 14.4766 21.896C15.0023 22.3848 15.7012 22.6542 16.4448 22.6542C17.1884 22.6542 17.8876 22.3848 18.4129 21.896C19.4982 20.8868 19.4985 19.2444 18.4133 18.2349ZM11.408 17.3762H3.21349C3.11855 17.3762 3.04162 17.4477 3.04162 17.536C3.04162 17.6243 3.11855 17.6958 3.21349 17.6958H11.4076C11.5026 17.6958 11.5795 17.6243 11.5795 17.536C11.5795 17.4474 11.5029 17.3762 11.408 17.3762ZM25 2.63642V2.71633V28.8402C25 28.9285 24.9231 29 24.8281 29H0.171866C0.0769239 29 0 28.9285 0 28.8402V0.159822C0.000346505 0.0715333 0.0769239 0 0.171866 0H21.993C22.0159 0 22.0377 0.00483337 22.0578 0.0122445C22.0675 0.0161111 22.0755 0.0225555 22.0845 0.0280333C22.0932 0.0331889 22.1032 0.0367334 22.1108 0.0435001L22.1147 0.0470444L24.9459 2.5201C24.9806 2.55039 25 2.59228 25 2.63642ZM22.1652 2.55651H24.4858L22.1652 0.529089V2.55651ZM24.6566 2.87616H21.9934C21.8984 2.87616 21.8215 2.80462 21.8215 2.71633V0.319644H0.343733V28.6807H24.6563V2.87616H24.6566ZM11.408 21.2109H3.21349C3.11855 21.2109 3.04162 21.2825 3.04162 21.3707C3.04162 21.459 3.11855 21.5306 3.21349 21.5306H11.4076C11.5026 21.5306 11.5795 21.459 11.5795 21.3707C11.5795 21.2825 11.5029 21.2109 11.408 21.2109ZM11.408 23.1281H3.21349C3.11855 23.1281 3.04162 23.1997 3.04162 23.288C3.04162 23.3763 3.11855 23.4478 3.21349 23.4478H11.4076C11.5026 23.4478 11.5795 23.3763 11.5795 23.288C11.5795 23.1997 11.5029 23.1281 11.408 23.1281ZM11.408 19.2934H3.21349C3.11855 19.2934 3.04162 19.3649 3.04162 19.4532C3.04162 19.5415 3.11855 19.613 3.21349 19.613H11.4076C11.5026 19.613 11.5795 19.5415 11.5795 19.4532C11.5795 19.3649 11.5029 19.2934 11.408 19.2934ZM11.408 25.0454H3.21349C3.11855 25.0454 3.04162 25.1169 3.04162 25.2052C3.04162 25.2935 3.11855 25.365 3.21349 25.365H11.4076C11.5026 25.365 11.5795 25.2935 11.5795 25.2052C11.5795 25.1169 11.5029 25.0454 11.408 25.0454Z" fill="#535B81"/>
</svg>
