<svg width="26" height="29" viewBox="0 0 26 29" fill="none" xmlns="http://www.w3.org/2000/svg">
<path d="M21.0944 0C18.3894 0 16.1895 2.12122 16.1895 4.72865C16.1895 7.33604 18.3894 9.45658 21.0944 9.45658C23.7993 9.45658 26 7.33604 26 4.72865C26 2.12122 23.7993 0 21.0944 0ZM21.0944 0.666682C23.4256 0.666682 25.3083 2.48153 25.3083 4.72865C25.3083 6.97573 23.4256 8.7899 21.0944 8.7899C18.7632 8.7899 16.8811 6.97573 16.8811 4.72865C16.8811 2.48153 18.7632 0.666682 21.0944 0.666682Z" fill="#535B81"/>
<path fill-rule="evenodd" clip-rule="evenodd" d="M20.571 6.24249L19.0005 6.74714L19.524 5.23321L22.1416 2.71008L23.1886 3.71936L20.571 6.24249Z" fill="#535B81"/>
<path d="M0 4.39722V29H21.4399V10.441H20.7483V28.3333H0.691632V5.0639H2.67264V11.7626C3.48002 10.9873 4.28656 10.2111 5.09335 9.43511C5.90007 10.2111 6.70679 10.9871 7.51406 11.7626V5.0639H15.1693V4.39722H0Z" fill="#535B81"/>
<path d="M2.68018 13.4681V14.1348H18.7599V13.4681H2.68018Z" fill="#535B81"/>
<path d="M2.68018 15.4004V16.0671H18.7599V15.4004H2.68018Z" fill="#535B81"/>
<path d="M2.68018 17.3328V17.9994H18.7599V17.3328H2.68018Z" fill="#535B81"/>
<path d="M2.68018 19.2651V19.9318H18.7599V19.2651H2.68018Z" fill="#535B81"/>
<path d="M2.68018 21.1974V21.8641H18.7599V21.1974H2.68018Z" fill="#535B81"/>
<path d="M2.68018 23.452V24.1187H10.7204V23.452H2.68018Z" fill="#535B81"/>
<path d="M15.6475 25.3408V26.0074H18.7598V25.3408H15.6475Z" fill="#535B81"/>
</svg>
