<svg width="29" height="30" viewBox="0 0 29 30" fill="none" xmlns="http://www.w3.org/2000/svg">
<path d="M16 0C14.229 0 12.793 1.34625 12.793 3.00656C12.793 4.66687 14.229 6.01219 16 6.01219C17.771 6.01219 19.207 4.66594 19.207 3.00563C19.207 1.34531 17.771 0 16 0ZM16 5.54344C14.508 5.54344 13.293 4.40531 13.293 3.00563C13.293 1.60688 14.508 0.46875 16 0.46875C17.492 0.46875 18.707 1.60687 18.707 3.00656C18.707 4.40531 17.492 5.54344 16 5.54344Z" fill="#535B81"/>
<path d="M9.5 9.54656C9.5 12.3497 9.5 12.9994 9.5 12.9994C9.5 12.9994 15.827 12.9994 15.848 12.9994L12.75 6.70312C12.75 6.70312 9.5 6.74344 9.5 9.54656ZM10 12.5316V9.5475C10 9.31969 10.071 7.39031 12.438 7.18875L15.067 12.5316H10Z" fill="#535B81"/>
<path d="M22.4999 9.54656C22.4999 6.74344 19.2499 6.70312 19.2499 6.70312L16.1519 13.0003H22.4999C22.4999 13.0003 22.4999 12.3497 22.4999 9.54656ZM21.9999 12.5316H16.9329L19.5579 7.19531C20.2849 7.28156 21.9999 7.68281 21.9999 9.54656V12.5316Z" fill="#535B81"/>
<path d="M13.7681 6.70312L16.0001 11.3344L18.2321 6.70312H16.0001H13.7681ZM16.0001 10.1953L14.5431 7.17187H16.0001H17.4571L16.0001 10.1953Z" fill="#535B81"/>
<path d="M6.49997 23.0128C8.27097 23.0128 9.70697 21.6666 9.70697 20.0063C9.70697 18.3459 8.27097 16.9997 6.49997 16.9997C4.72897 16.9997 3.29297 18.3459 3.29297 20.0063C3.29297 21.6666 4.72897 23.0128 6.49997 23.0128ZM6.49997 17.4684C7.99197 17.4684 9.20697 18.6066 9.20697 20.0063C9.20697 21.405 7.99297 22.5441 6.49997 22.5441C5.00797 22.5441 3.79297 21.4059 3.79297 20.0063C3.79297 18.6075 5.00797 17.4684 6.49997 17.4684Z" fill="#535B81"/>
<path d="M3.25 23.7028C3.25 23.7028 0 23.7431 0 26.5463C0 29.3494 0 30 0 30C0 30 6.327 30 6.348 30L3.25 23.7028ZM0.5 26.5472C0.5 26.3194 0.571 24.39 2.938 24.1884L5.567 29.5313H0.5V26.5472Z" fill="#535B81"/>
<path d="M6.50007 23.7028H4.26807L6.50007 28.3341L8.73207 23.7028H6.50007ZM5.04307 24.1716H6.50007H7.95707L6.50007 27.1959L5.04307 24.1716Z" fill="#535B81"/>
<path d="M28.2549 9.46405H22.4999V9.9328H27.7549V27.2184H12.9999C12.9999 27.0037 12.9999 26.7937 12.9999 26.5462C12.9999 23.7431 9.74986 23.7028 9.74986 23.7028L6.65186 30H12.9999C12.9999 30 12.9999 29.52 12.9999 27.6872H28.2549V9.46405ZM12.4999 29.5312H7.43286L10.0579 24.195C10.7839 24.2812 12.4999 24.6825 12.4999 26.5462V29.5312Z" fill="#535B81"/>
</svg>
