<svg width="26" height="27" viewBox="0 0 26 27" fill="none" xmlns="http://www.w3.org/2000/svg">
<path d="M24.1372 20.9935C23.8506 21.0768 23.5585 21.1531 23.2686 21.2198C23.1677 21.2432 23.1063 21.3379 23.1313 21.4316C23.1527 21.5112 23.2296 21.5642 23.3142 21.5642C23.3293 21.5642 23.3443 21.5625 23.3598 21.5591C23.6567 21.4905 23.9562 21.4125 24.2498 21.327C24.3492 21.2982 24.4044 21.2 24.3735 21.108C24.3422 21.0159 24.2366 20.965 24.1372 20.9935Z" fill="#555E85"/>
<path d="M22.4679 21.4828C20.6282 21.7519 18.7705 21.704 16.9485 21.3387C16.8488 21.3191 16.7465 21.3781 16.7248 21.4727C16.7027 21.5671 16.7675 21.6601 16.869 21.6804C17.9441 21.8958 19.0314 22.0037 20.1205 22.0037C20.9229 22.0037 21.7261 21.9451 22.5268 21.8279C22.6294 21.8129 22.6997 21.7234 22.6835 21.628C22.6669 21.5326 22.5691 21.466 22.4679 21.4828Z" fill="#555E85"/>
<path d="M24.1638 18.8941L23.6436 18.8119V16.4854C23.6436 15.4948 21.4952 15.0436 19.4991 15.0436C17.5031 15.0436 15.3547 15.4948 15.3547 16.4854V18.8165L14.9923 18.8791C14.0287 19.0454 13.3296 19.8258 13.3296 20.735V24.4002C13.3296 24.9003 13.6692 25.3527 14.1744 25.5265C15.9217 26.1266 17.7573 26.4268 19.5933 26.4268C21.429 26.4266 23.265 26.1266 25.0123 25.5263C25.5175 25.3526 25.8571 24.9001 25.8571 24.4002V20.755C25.8571 19.8316 25.1447 19.0489 24.1638 18.8941ZM19.4991 15.7427C21.663 15.7427 22.8724 16.2697 22.89 16.4854C22.8735 16.701 21.6652 17.2282 19.4991 17.2282C17.3324 17.2282 16.1241 16.701 16.1082 16.4854C16.1252 16.2699 17.3342 15.7427 19.4991 15.7427ZM25.1035 24.4002C25.1035 24.6091 24.9615 24.7982 24.7503 24.8708C21.4249 26.0132 17.7617 26.0132 14.4363 24.8708C14.2251 24.7982 14.0831 24.6091 14.0831 24.4002V20.735C14.0831 20.1626 14.5235 19.671 15.1299 19.5662L15.8003 19.4505C15.9787 19.4198 16.1082 19.2754 16.1082 19.107V17.3605C16.91 17.7454 18.2342 17.9273 19.4991 17.9273C20.7641 17.9273 22.0883 17.7454 22.89 17.3605V19.107C22.89 19.2773 23.0225 19.4229 23.2035 19.4516L24.0373 19.5833C24.655 19.6808 25.1035 20.1735 25.1035 20.755V24.4002Z" fill="#555E85"/>
<path d="M17.7387 9.42147C17.806 9.19909 17.7343 8.96321 17.5558 8.80671C17.8991 8.40921 18.1331 7.93542 18.2273 7.42238C18.9334 3.56414 17.962 0.990394 16.6146 0.730971C16.3313 0.676014 15.3659 0.630786 14.9107 2.34946C14.6675 3.26495 14.1748 4.08623 13.3599 4.93431C12.9993 5.30945 12.6939 5.71957 12.447 6.16025C12.2432 6.10461 12.0202 6.14557 11.851 6.28041C11.3579 6.67398 10.8259 7.06977 10.37 7.40514C9.89575 7.75434 9.4947 8.18341 9.18748 8.663C8.97371 8.57801 8.72903 8.60702 8.54249 8.74578C7.43426 9.56689 5.96215 10.6885 4.40247 12.085C-0.666575 16.624 0.832027 20.9864 1.1353 21.7183C0.396299 23.3859 0.167903 24.6314 0.147667 24.7483C0.114553 24.9389 0.254736 25.1181 0.460044 25.1487C0.480281 25.1517 0.500149 25.1531 0.520018 25.1531C0.701778 25.1531 0.862198 25.0307 0.891633 24.8589C0.896232 24.8318 1.10761 23.6815 1.79685 22.1047C2.05753 22.1529 2.33652 22.1789 2.63528 22.1789C4.88189 22.1788 8.11495 20.8455 11.0382 18.6336C11.2748 18.4542 11.3487 18.1594 11.2222 17.9002C11.2189 17.8932 11.2152 17.886 11.2115 17.8792C12.4124 17.3325 13.4886 16.5356 14.3356 15.5515L14.485 15.3754C14.6561 15.1716 14.6738 14.8968 14.5299 14.6755C14.5148 14.6523 14.4983 14.6301 14.4806 14.6094C15.286 14.1032 15.9516 13.4203 16.3972 12.6228C16.8244 11.8587 17.1801 11.0736 17.4557 10.2892C17.5591 9.99357 17.6533 9.70428 17.7387 9.42147ZM16.739 10.0729C16.4767 10.821 16.1363 11.5708 15.7283 12.3011C15.1079 13.4111 13.9968 14.2664 12.6527 14.6548L12.5357 14.6886C12.5353 14.6887 12.535 14.689 12.5347 14.6891C12.4573 14.7114 12.3812 14.734 12.291 14.7618L12.1817 14.7966C12.113 14.8187 12.0451 14.8416 11.9617 14.8701L11.9558 14.8721C11.9544 14.8726 11.9529 14.8731 11.9514 14.8736L11.8587 14.9055C11.8585 14.9056 11.8584 14.9057 11.8582 14.9058L11.858 14.9059C11.7825 14.9328 11.7093 14.9596 11.6372 14.9868C11.6368 14.9869 11.6015 15.0001 11.6011 15.0003L11.5614 15.0149C11.5612 15.015 11.561 15.0152 11.5608 15.0152L11.5603 15.0155C11.4646 15.0521 11.3723 15.0888 11.2807 15.1266L11.2225 15.1513V15.1514C11.1549 15.1796 11.089 15.2076 11.0242 15.2361L10.9422 15.2728C10.9379 15.2747 10.935 15.2779 10.9308 15.28L10.8078 15.3377C10.8023 15.34 10.7964 15.3395 10.7909 15.3419L10.71 15.38C10.7027 15.3835 10.6975 15.3889 10.6906 15.3928L10.5817 15.4439C10.5792 15.4451 10.5763 15.4448 10.5739 15.4461L10.514 15.4757L10.5113 15.477C10.4602 15.5022 10.4131 15.5266 10.3748 15.5468L10.3691 15.5497C10.3683 15.5502 10.3667 15.551 10.3654 15.5516C10.3605 15.554 10.3548 15.5568 10.3491 15.5598C10.3441 15.5623 10.3378 15.5654 10.3373 15.5657C10.3369 15.5659 10.3365 15.566 10.3362 15.5664C10.336 15.5665 10.3359 15.5666 10.3357 15.5667C10.3356 15.5668 10.3354 15.5669 10.3354 15.5669C10.3351 15.5669 10.3351 15.5669 10.3351 15.5669V15.5671L10.1897 15.6449C10.1896 15.645 10.1869 15.6465 10.1861 15.6469L10.1853 15.6473C10.1853 15.6474 10.1741 15.6536 10.1645 15.6589C10.1596 15.6617 10.1531 15.6652 10.1526 15.6655L10.0757 15.7102C10.0738 15.7111 10.0719 15.711 10.0702 15.712L10.0676 15.7135V15.7133L10.0278 15.7362C10.0256 15.7375 10.0245 15.7397 10.0223 15.741L9.9503 15.7828C9.94892 15.7837 9.94717 15.7837 9.94579 15.7845C9.94469 15.7852 9.94322 15.786 9.94211 15.7867C9.94211 15.7867 9.94211 15.7867 9.94175 15.7869C9.94175 15.7869 9.94138 15.7871 9.94138 15.7872L9.94101 15.7874C9.94064 15.7876 9.94027 15.7877 9.94027 15.7879C9.93899 15.7888 9.93797 15.7899 9.93669 15.7907L9.91912 15.8009C9.91884 15.8011 9.91847 15.8011 9.9182 15.8012C9.91719 15.8018 9.9147 15.8034 9.91341 15.8042L9.91121 15.8055C9.9101 15.806 9.89907 15.813 9.88987 15.8186C9.88619 15.8209 9.88288 15.8231 9.8803 15.8244C9.87883 15.8256 9.87809 15.8256 9.87846 15.8256C9.87809 15.826 9.87772 15.8261 9.87772 15.8263C9.707 15.9345 9.6761 16.1416 9.79126 16.3008C9.82677 16.3499 9.87653 16.3828 9.93071 16.4078C9.94 16.4124 9.94966 16.4142 9.95931 16.418C9.99786 16.4324 10.0369 16.4415 10.0786 16.4441C10.0893 16.4449 10.0989 16.4508 10.1095 16.4508C10.1268 16.4508 10.1439 16.4462 10.1612 16.444C10.1706 16.4428 10.1795 16.4422 10.1888 16.4404C10.2323 16.4319 10.2749 16.4184 10.3142 16.3954C10.3153 16.3948 10.3167 16.3948 10.3178 16.3941C10.3181 16.3939 10.3187 16.3936 10.3191 16.3934C10.3192 16.3933 10.3194 16.3932 10.3196 16.3931C10.3196 16.393 10.3244 16.3901 10.3248 16.3899C10.3248 16.3899 10.3259 16.3892 10.3281 16.388C10.3446 16.3779 10.3755 16.3593 10.3811 16.3561L10.4278 16.3288C10.4278 16.3288 10.4279 16.3287 10.4279 16.3287C10.428 16.3287 10.4281 16.3287 10.4282 16.3286L10.4605 16.31C10.4607 16.3099 10.4608 16.3097 10.461 16.3096C10.4612 16.3095 10.4623 16.3089 10.4624 16.3088L11.3484 15.8671C11.408 15.841 11.4705 15.8144 11.5562 15.7785L11.5908 15.7637C11.6736 15.7299 11.7594 15.6955 11.8793 15.65L11.922 15.6341C11.922 15.6341 11.9221 15.6341 11.9222 15.6341C11.9893 15.6088 12.0576 15.5836 12.1273 15.5589L12.5445 15.4203C12.6148 15.3984 12.6869 15.3771 12.7594 15.3563L12.8683 15.3249C12.8685 15.3248 12.8686 15.3248 12.8687 15.3247C13.1608 15.2435 13.4537 15.1749 13.7425 15.1201C12.6225 16.4199 11.0673 17.3629 9.36482 17.7752L9.31 17.7892C9.2022 17.8157 9.0931 17.844 8.97619 17.8754C8.95421 17.8812 8.9302 17.8869 8.90858 17.8928C8.90785 17.8932 8.90711 17.8933 8.90637 17.8935C8.90601 17.8937 8.90601 17.8937 8.90601 17.8937C8.90518 17.8939 8.90463 17.8945 8.9038 17.8948C8.89368 17.8975 8.88503 17.8997 8.87473 17.9026C8.87289 17.9031 8.87105 17.9036 8.86921 17.9041H8.86884C8.86811 17.9043 8.86701 17.9051 8.86627 17.9049C8.86517 17.9051 8.86443 17.9053 8.86333 17.9056C8.86296 17.9055 8.86185 17.906 8.86112 17.9063C8.85965 17.9067 8.85928 17.9067 8.85854 17.907C8.85781 17.9073 8.85634 17.9082 8.85597 17.9077C8.74632 17.9382 8.64146 17.9688 8.54101 17.999C8.52593 18.0036 8.51048 18.0082 8.49502 18.0128L8.44204 18.0289C8.32945 18.0635 8.22128 18.0976 8.12083 18.1307C8.1201 18.1311 8.11936 18.1313 8.11826 18.1316C8.11826 18.1316 8.11826 18.1318 8.11789 18.1318L8.11642 18.1323C8.11605 18.1325 8.11568 18.1325 8.11531 18.1326C8.11531 18.1326 8.06877 18.1484 8.06583 18.1493C8.06583 18.1493 8.06573 18.1493 8.06564 18.1494C8.06564 18.1495 8.06527 18.1495 8.06527 18.1495C7.9766 18.179 7.89418 18.2076 7.81729 18.2345C7.81655 18.2349 7.81581 18.235 7.81508 18.2354C7.81434 18.2355 7.80514 18.2388 7.79447 18.2425C7.79447 18.2425 7.79447 18.2427 7.79411 18.2427C7.79374 18.2429 7.79374 18.2429 7.79374 18.2429C7.79337 18.2429 7.79337 18.2429 7.79337 18.243C7.77939 18.248 7.76357 18.2535 7.7632 18.2535C7.76099 18.2543 7.75878 18.2552 7.75658 18.256C7.67563 18.2849 7.60168 18.312 7.53618 18.3368L7.4924 18.3535L7.3375 18.4134C7.3352 18.4143 7.33382 18.4162 7.33161 18.4172L7.32637 18.4192C7.32388 18.4202 7.32122 18.4197 7.31873 18.4207L7.20578 18.4666C7.20522 18.4668 7.20495 18.4673 7.20449 18.4675L7.1929 18.4721C7.19143 18.4728 7.16457 18.484 7.15831 18.4866C7.15243 18.4892 7.14691 18.4917 7.14102 18.4945C7.11747 18.5057 7.10073 18.5236 7.08095 18.5385C7.06504 18.5506 7.04637 18.5597 7.03303 18.5737C7.01362 18.594 7.00185 18.6182 6.98814 18.6417C6.97922 18.657 6.96671 18.6702 6.96036 18.6866C6.94979 18.7138 6.94804 18.7429 6.945 18.7719C6.94335 18.7871 6.93718 18.8013 6.93774 18.8167C6.9393 18.8614 6.94988 18.9066 6.97103 18.9498C6.99035 18.9893 7.01831 19.0219 7.04959 19.0508C7.0586 19.0592 7.06826 19.066 7.0781 19.0734C7.10386 19.0928 7.13136 19.1085 7.16135 19.121C7.17202 19.1254 7.18168 19.1306 7.19271 19.1341C7.23181 19.1465 7.27237 19.1548 7.31432 19.1548C7.31579 19.1548 7.31726 19.1539 7.31873 19.1539C7.36914 19.1533 7.42019 19.1441 7.46922 19.1236C7.46922 19.1237 7.46683 19.1248 7.47327 19.1219L7.77129 19.003L7.77718 19.0007C7.77736 19.0006 7.77736 19.0005 7.77755 19.0005L7.77828 19.0002C7.77865 19.0002 7.81949 18.9845 7.81949 18.9845C7.81986 18.9845 7.82023 18.9843 7.82023 18.9843C7.88425 18.9602 7.95526 18.9341 8.034 18.9061L8.03391 18.906C8.034 18.9059 8.03391 18.906 8.034 18.9059C8.04209 18.903 8.04734 18.8968 8.05516 18.8935C8.06435 18.8909 8.07374 18.8919 8.08293 18.8887C8.15652 18.8628 8.236 18.8355 8.32062 18.8073C8.32071 18.8073 8.32081 18.8072 8.32081 18.8072C8.3209 18.8072 8.3209 18.8071 8.32099 18.8071L8.37038 18.7904C8.37048 18.7904 8.37057 18.7904 8.37066 18.7904C8.37066 18.7904 8.37066 18.7902 8.37103 18.7902C8.46743 18.7585 8.57045 18.7259 8.67862 18.6926L8.75589 18.6692C8.86084 18.6375 8.9703 18.6056 9.08501 18.5738C9.09678 18.5705 9.10626 18.5678 9.11858 18.5643C9.11867 18.5643 9.11886 18.5643 9.11904 18.5643C9.11941 18.5641 9.11941 18.5641 9.11941 18.5641C9.11978 18.5639 9.12051 18.5637 9.12088 18.5637C9.2434 18.5303 9.37145 18.4974 9.5028 18.4651C9.76992 18.3994 10.033 18.3426 10.2883 18.2953C7.37484 20.4248 4.02893 21.6986 2.10343 21.4437C3.12408 19.3632 4.93635 16.7708 8.06675 14.9813C14.3342 11.3987 16.0579 6.18944 16.1282 5.96944C16.1871 5.78443 16.0738 5.5902 15.8743 5.53525C15.6742 5.48012 15.4648 5.58594 15.406 5.77043C15.3894 5.82181 13.6825 10.95 7.67158 14.386C4.56115 16.1641 2.70022 18.6491 1.60644 20.7413C1.26076 19.2883 1.08517 16.027 4.92568 12.5881C6.34481 11.3173 7.69366 10.2752 8.75442 9.48394C8.71542 9.63396 8.67752 9.76947 8.64109 9.89185C8.40929 10.6691 8.23489 10.9181 8.19 10.9732C8.18706 10.9768 8.18485 10.9797 8.18301 10.9818C8.04099 11.0975 8.01192 11.2961 8.1223 11.4436C8.24115 11.602 8.47552 11.6416 8.64661 11.5315V11.5313C8.64661 11.5313 8.64698 11.5312 8.64698 11.531H8.64735C8.64735 11.5308 8.64772 11.5308 8.64772 11.5307C8.70769 11.4919 8.76913 11.4282 8.83132 11.3414C8.97996 11.1355 9.17386 10.745 9.38837 10.0065C9.39058 9.99988 9.39242 9.99323 9.39426 9.98657C9.62422 9.19175 10.1371 8.46929 10.8384 7.95266C11.2093 7.67992 11.6306 7.36725 12.0427 7.04639C12.0386 7.05799 12.0349 7.06943 12.0309 7.08069C12.0283 7.08803 12.0257 7.0952 12.0232 7.10237C11.997 7.17849 11.9705 7.2529 11.9441 7.32544C11.6519 8.13084 11.3752 8.70772 11.3421 8.7765C11.3399 8.78077 11.3388 8.78298 11.3384 8.7835C11.2523 8.95912 11.3355 9.16632 11.525 9.24653C11.5927 9.27503 11.6641 9.28374 11.7325 9.27486C11.8561 9.25916 11.9683 9.1868 12.0239 9.07381C12.0246 9.07296 12.025 9.07159 12.0261 9.06989C12.0588 9.00264 12.4077 8.28257 12.7524 7.28277C13.0015 6.58181 13.3948 5.94845 13.9221 5.39956C14.8224 4.46308 15.3688 3.54708 15.6422 2.51655C15.832 1.80024 16.1613 1.35598 16.4616 1.41554C17.0587 1.53057 18.2012 3.38852 17.4841 7.3053C17.3428 8.07725 16.7865 8.73485 15.9777 9.07347C15.9763 9.07398 15.9752 9.07449 15.9737 9.07501C15.9711 9.0762 15.9685 9.07722 15.966 9.07825L15.8711 9.11605C15.871 9.11612 15.8708 9.11607 15.8707 9.11614V9.11622L15.8692 9.11682L15.8764 9.13237C15.8738 9.13436 15.8721 9.13698 15.8696 9.13903C15.8582 9.14005 15.8467 9.14285 15.8353 9.14488L15.8287 9.13269L15.8312 9.13822L15.828 9.13303L15.7652 9.15684C15.7648 9.15689 15.7638 9.15731 15.7614 9.15812C15.7503 9.16239 15.7198 9.174 15.7191 9.17434C15.7171 9.17508 15.7159 9.17668 15.714 9.17745C15.7117 9.17824 15.7092 9.17777 15.7069 9.1786L15.6341 9.20472C15.4398 9.27282 15.3412 9.47387 15.4141 9.65427C15.4305 9.6951 15.4559 9.72973 15.4852 9.76066C15.4948 9.77088 15.5059 9.77869 15.5166 9.78771C15.5392 9.8066 15.5629 9.82277 15.5894 9.83604C15.6026 9.84271 15.6153 9.84884 15.6294 9.85398C15.6604 9.86541 15.6926 9.87213 15.7261 9.87563C15.7365 9.87672 15.7462 9.87971 15.7569 9.87996C15.7604 9.88005 15.7637 9.88144 15.7673 9.88144C15.8107 9.88144 15.8548 9.87444 15.8983 9.85959L15.9821 9.82955C15.9829 9.82921 15.9877 9.82733 15.9939 9.82511L16.0062 9.82048C16.0161 9.81684 16.0366 9.80911 16.0381 9.80856V9.80843L16.0475 9.8048L16.0476 9.80497C16.048 9.80485 16.0481 9.80461 16.0485 9.80448L16.1179 9.77818C16.1183 9.77818 16.1315 9.77289 16.1437 9.76811L16.1462 9.76709C16.1549 9.76376 16.1621 9.76088 16.1628 9.76058V9.7606C16.1628 9.76058 16.1629 9.76054 16.163 9.76051L16.1632 9.76043L16.1867 9.75087L16.1871 9.75104L16.2541 9.72408C16.261 9.72152 16.2691 9.71844 16.2769 9.7152C16.278 9.71469 16.2791 9.71418 16.2802 9.71367C16.4454 9.64693 16.6845 9.54504 16.9575 9.41362C16.8902 9.62969 16.8174 9.84952 16.739 10.0729Z" fill="#555E85"/>
</svg>
