<svg width="23" height="27" viewBox="0 0 23 27" fill="none" xmlns="http://www.w3.org/2000/svg">
<path d="M5.8647 19.8662H6.76695C6.8866 19.8662 7.00134 19.8197 7.08595 19.7369C7.17055 19.6541 7.21808 19.5418 7.21808 19.4247C7.21808 19.3077 7.17055 19.1954 7.08595 19.1126C7.00134 19.0298 6.8866 18.9833 6.76695 18.9833H5.8647C5.74505 18.9833 5.63031 19.0298 5.54571 19.1126C5.4611 19.1954 5.41357 19.3077 5.41357 19.4247C5.41357 19.5418 5.4611 19.6541 5.54571 19.7369C5.63031 19.8197 5.74505 19.8662 5.8647 19.8662Z" fill="#535B81"/>
<path d="M19.3983 18.9833H8.57124C8.4516 18.9833 8.33685 19.0298 8.25225 19.1126C8.16765 19.1954 8.12012 19.3077 8.12012 19.4247C8.12012 19.5418 8.16765 19.6541 8.25225 19.7369C8.33685 19.8197 8.4516 19.8662 8.57124 19.8662H19.3983C19.5179 19.8662 19.6327 19.8197 19.7173 19.7369C19.8019 19.6541 19.8494 19.5418 19.8494 19.4247C19.8494 19.3077 19.8019 19.1954 19.7173 19.1126C19.6327 19.0298 19.5179 18.9833 19.3983 18.9833Z" fill="#535B81"/>
<path d="M5.8647 17.2174H6.76695C6.8866 17.2174 7.00134 17.1709 7.08595 17.0881C7.17055 17.0053 7.21808 16.8931 7.21808 16.776C7.21808 16.6589 7.17055 16.5467 7.08595 16.4639C7.00134 16.3811 6.8866 16.3346 6.76695 16.3346H5.8647C5.74505 16.3346 5.63031 16.3811 5.54571 16.4639C5.4611 16.5467 5.41357 16.6589 5.41357 16.776C5.41357 16.8931 5.4611 17.0053 5.54571 17.0881C5.63031 17.1709 5.74505 17.2174 5.8647 17.2174Z" fill="#535B81"/>
<path d="M19.3983 16.3346H8.57124C8.4516 16.3346 8.33685 16.3811 8.25225 16.4639C8.16765 16.5467 8.12012 16.6589 8.12012 16.776C8.12012 16.8931 8.16765 17.0053 8.25225 17.0881C8.33685 17.1709 8.4516 17.2174 8.57124 17.2174H19.3983C19.5179 17.2174 19.6327 17.1709 19.7173 17.0881C19.8019 17.0053 19.8494 16.8931 19.8494 16.776C19.8494 16.6589 19.8019 16.5467 19.7173 16.4639C19.6327 16.3811 19.5179 16.3346 19.3983 16.3346Z" fill="#535B81"/>
<path d="M5.8647 14.5685H6.76695C6.8866 14.5685 7.00134 14.522 7.08595 14.4392C7.17055 14.3564 7.21808 14.2441 7.21808 14.127C7.21808 14.0099 7.17055 13.8976 7.08595 13.8148C7.00134 13.7321 6.8866 13.6855 6.76695 13.6855H5.8647C5.74505 13.6855 5.63031 13.7321 5.54571 13.8148C5.4611 13.8976 5.41357 14.0099 5.41357 14.127C5.41357 14.2441 5.4611 14.3564 5.54571 14.4392C5.63031 14.522 5.74505 14.5685 5.8647 14.5685Z" fill="#535B81"/>
<path d="M19.3983 13.6855H8.57124C8.4516 13.6855 8.33685 13.7321 8.25225 13.8148C8.16765 13.8976 8.12012 14.0099 8.12012 14.127C8.12012 14.2441 8.16765 14.3564 8.25225 14.4392C8.33685 14.522 8.4516 14.5685 8.57124 14.5685H19.3983C19.5179 14.5685 19.6327 14.522 19.7173 14.4392C19.8019 14.3564 19.8494 14.2441 19.8494 14.127C19.8494 14.0099 19.8019 13.8976 19.7173 13.8148C19.6327 13.7321 19.5179 13.6855 19.3983 13.6855Z" fill="#535B81"/>
<path d="M5.8647 11.9198H6.76695C6.8866 11.9198 7.00134 11.8733 7.08595 11.7905C7.17055 11.7077 7.21808 11.5955 7.21808 11.4784C7.21808 11.3613 7.17055 11.2491 7.08595 11.1663C7.00134 11.0835 6.8866 11.037 6.76695 11.037H5.8647C5.74505 11.037 5.63031 11.0835 5.54571 11.1663C5.4611 11.2491 5.41357 11.3613 5.41357 11.4784C5.41357 11.5955 5.4611 11.7077 5.54571 11.7905C5.63031 11.8733 5.74505 11.9198 5.8647 11.9198Z" fill="#535B81"/>
<path d="M19.3983 11.037H8.57124C8.4516 11.037 8.33685 11.0835 8.25225 11.1663C8.16765 11.2491 8.12012 11.3613 8.12012 11.4784C8.12012 11.5955 8.16765 11.7077 8.25225 11.7905C8.33685 11.8733 8.4516 11.9198 8.57124 11.9198H19.3983C19.5179 11.9198 19.6327 11.8733 19.7173 11.7905C19.8019 11.7077 19.8494 11.5955 19.8494 11.4784C19.8494 11.3613 19.8019 11.2491 19.7173 11.1663C19.6327 11.0835 19.5179 11.037 19.3983 11.037Z" fill="#535B81"/>
<path d="M5.8647 9.27087H6.76695C6.8866 9.27087 7.00134 9.22436 7.08595 9.14157C7.17055 9.05878 7.21808 8.94649 7.21808 8.82941C7.21808 8.71232 7.17055 8.60003 7.08595 8.51724C7.00134 8.43445 6.8866 8.38794 6.76695 8.38794H5.8647C5.74505 8.38794 5.63031 8.43445 5.54571 8.51724C5.4611 8.60003 5.41357 8.71232 5.41357 8.82941C5.41357 8.94649 5.4611 9.05878 5.54571 9.14157C5.63031 9.22436 5.74505 9.27087 5.8647 9.27087Z" fill="#535B81"/>
<path d="M8.12012 8.82941C8.12012 8.94649 8.16765 9.05878 8.25225 9.14157C8.33685 9.22436 8.4516 9.27087 8.57124 9.27087H19.3983C19.5179 9.27087 19.6327 9.22436 19.7173 9.14157C19.8019 9.05878 19.8494 8.94649 19.8494 8.82941C19.8494 8.71232 19.8019 8.60003 19.7173 8.51724C19.6327 8.43445 19.5179 8.38794 19.3983 8.38794H8.57124C8.4516 8.38794 8.33685 8.43445 8.25225 8.51724C8.16765 8.60003 8.12012 8.71232 8.12012 8.82941Z" fill="#535B81"/>
<path d="M0.451126 26.488H19.3984C19.518 26.488 19.6328 26.4415 19.7174 26.3587C19.802 26.2759 19.8495 26.1637 19.8495 26.0466V23.8392H22.1052C22.2248 23.8392 22.3395 23.7927 22.4241 23.7099C22.5087 23.6271 22.5563 23.5149 22.5563 23.3978V6.62201C22.5563 6.6123 22.5513 6.60391 22.5504 6.5942C22.5482 6.55552 22.5404 6.51733 22.5274 6.48074C22.5224 6.46661 22.5188 6.45293 22.5125 6.43924C22.4906 6.39121 22.46 6.3474 22.4223 6.30989L16.1065 0.12935C16.0682 0.092445 16.0234 0.0625434 15.9744 0.0410564C15.9604 0.0348759 15.9464 0.0313442 15.9324 0.026488C15.8947 0.0138133 15.8554 0.0060938 15.8156 0.00353169C15.8079 0.00485609 15.7993 0 15.7894 0H3.15788C3.03823 0 2.92349 0.0465116 2.83888 0.129303C2.75428 0.212094 2.70675 0.324383 2.70675 0.441467V1.76587H0.451126C0.33148 1.76587 0.216734 1.81238 0.132132 1.89517C0.0475292 1.97796 0 2.09025 0 2.20734V26.0466C0 26.1637 0.0475292 26.2759 0.132132 26.3587C0.216734 26.4415 0.33148 26.488 0.451126 26.488ZM21.0161 6.18054H16.2405V1.50717L21.0161 6.18054ZM3.609 0.882935H15.3383V6.62201C15.3383 6.73909 15.3858 6.85138 15.4704 6.93417C15.555 7.01697 15.6697 7.06348 15.7894 7.06348H21.654V22.9563H3.609V0.882935ZM0.902251 2.6488H2.70675V23.3978C2.70675 23.5149 2.75428 23.6271 2.83888 23.7099C2.92349 23.7927 3.03823 23.8392 3.15788 23.8392H18.9473V25.6051H0.902251V2.6488Z" fill="#535B81"/>
<path d="M5.8647 7.50488H8.57146C8.6911 7.50488 8.80585 7.45837 8.89045 7.37558C8.97505 7.2928 9.02258 7.18051 9.02258 7.06343V4.41472C9.02258 4.29764 8.97505 4.18535 8.89045 4.10256C8.80585 4.01978 8.6911 3.97327 8.57146 3.97327H5.8647C5.74505 3.97327 5.63031 4.01978 5.54571 4.10256C5.4611 4.18535 5.41357 4.29764 5.41357 4.41472V7.06343C5.41357 7.18051 5.4611 7.2928 5.54571 7.37558C5.63031 7.45837 5.74505 7.50488 5.8647 7.50488ZM6.31583 4.85617H8.12033V6.62198H6.31583V4.85617Z" fill="#535B81"/>
</svg>
