<svg width="26" height="26" viewBox="0 0 26 26" fill="none" xmlns="http://www.w3.org/2000/svg">
<path d="M24.8647 2.59561H21.5509V1.69194C21.5509 0.759026 20.7922 0 19.8593 0C18.9264 0 18.1678 0.759026 18.1678 1.69194V2.59561H7.83262V1.69194C7.83262 0.759026 7.07398 0 6.14107 0C5.20816 0 4.44951 0.759026 4.44951 1.69194V2.59561H1.13565C0.509351 2.59561 0 3.10497 0 3.73088V7.80954V24.8647C0 25.4907 0.509351 26 1.13565 26H24.8647C25.4907 26 26 25.4907 26 24.8647V7.80954V3.73088C26 3.10497 25.4907 2.59561 24.8647 2.59561ZM18.9556 1.69194C18.9556 1.19336 19.3611 0.787879 19.8593 0.787879C20.3575 0.787879 20.763 1.19336 20.763 1.69194V4.28717C20.763 4.78536 20.3575 5.19084 19.8593 5.19084C19.3611 5.19084 18.9556 4.78536 18.9556 4.28717V1.69194ZM5.23739 1.69194C5.23739 1.19336 5.64287 0.787879 6.14107 0.787879C6.63926 0.787879 7.04474 1.19336 7.04474 1.69194V4.28717C7.04474 4.78536 6.63926 5.19084 6.14107 5.19084C5.64287 5.19084 5.23739 4.78536 5.23739 4.28717V1.69194ZM0.787879 3.73088C0.787879 3.5393 0.94407 3.38349 1.13565 3.38349H4.44951V4.28717C4.44951 5.22008 5.20816 5.97872 6.14107 5.97872C7.07398 5.97872 7.83262 5.22008 7.83262 4.28717V3.38349H18.1678V4.28717C18.1678 5.22008 18.9264 5.97872 19.8593 5.97872C20.7922 5.97872 21.5509 5.22008 21.5509 4.28717V3.38349H24.8647C25.0563 3.38349 25.2121 3.5393 25.2121 3.73088V7.4156H0.787879V3.73088ZM25.2121 24.8647C25.2121 25.0563 25.0563 25.2121 24.8647 25.2121H1.13565C0.94407 25.2121 0.787879 25.0563 0.787879 24.8647V8.20348H25.2121V24.8647Z" fill="#535B81"/>
<path d="M9.10708 13.9041H11.3315C11.7531 13.9041 12.0963 13.561 12.0963 13.1393V10.9146C12.0963 10.4929 11.7531 10.1501 11.3315 10.1501H9.10708C8.68544 10.1501 8.34229 10.4929 8.34229 10.9146V13.1393C8.34229 13.561 8.68544 13.9041 9.10708 13.9041ZM9.13016 10.9376L11.3084 10.9146L11.3315 13.1162L9.13016 13.1393V10.9376Z" fill="#535B81"/>
<path d="M14.6687 13.9041H16.8935C17.3151 13.9041 17.6583 13.561 17.6583 13.1393V10.9146C17.6583 10.4929 17.3151 10.1501 16.8935 10.1501H14.6687C14.2471 10.1501 13.9043 10.4929 13.9043 10.9146V13.1393C13.9043 13.561 14.2471 13.9041 14.6687 13.9041ZM14.6922 10.9376L16.8704 10.9146L16.8935 13.1162L14.6922 13.1393V10.9376Z" fill="#535B81"/>
<path d="M20.2301 13.9041H22.4545C22.8761 13.9041 23.2193 13.561 23.2193 13.1393V10.9146C23.2193 10.4929 22.8761 10.1501 22.4545 10.1501H20.2301C19.8085 10.1501 19.4653 10.4929 19.4653 10.9146V13.1393C19.4653 13.561 19.8085 13.9041 20.2301 13.9041ZM20.2532 10.9376L22.4314 10.9146L22.4545 13.1162L20.2532 13.1393V10.9376Z" fill="#535B81"/>
<path d="M3.54566 18.5848H5.77042C6.19206 18.5848 6.53522 18.2416 6.53522 17.82V15.5956C6.53522 15.174 6.19206 14.8308 5.77042 14.8308H3.54566C3.12402 14.8308 2.78125 15.174 2.78125 15.5956V17.82C2.78125 18.2416 3.12402 18.5848 3.54566 18.5848ZM3.56913 15.6183L5.74734 15.5956L5.77042 17.7969L3.56913 17.82V15.6183Z" fill="#535B81"/>
<path d="M9.10708 18.5848H11.3315C11.7531 18.5848 12.0963 18.2416 12.0963 17.82V15.5956C12.0963 15.174 11.7531 14.8308 11.3315 14.8308H9.10708C8.68544 14.8308 8.34229 15.174 8.34229 15.5956V17.82C8.34229 18.2416 8.68544 18.5848 9.10708 18.5848ZM9.13016 15.6183L11.3084 15.5956L11.3315 17.7969L9.13016 17.82V15.6183Z" fill="#535B81"/>
<path d="M20.2301 18.5848H22.4545C22.8761 18.5848 23.2193 18.2416 23.2193 17.82V15.5956C23.2193 15.174 22.8761 14.8308 22.4545 14.8308H20.2301C19.8085 14.8308 19.4653 15.174 19.4653 15.5956V17.82C19.4653 18.2416 19.8085 18.5848 20.2301 18.5848ZM20.2532 15.6183L22.4314 15.5956L22.4545 17.7969L20.2532 17.82V15.6183Z" fill="#535B81"/>
<path d="M3.54566 23.2659H5.77042C6.19206 23.2659 6.53522 22.9228 6.53522 22.5011V20.2764C6.53522 19.8547 6.19206 19.512 5.77042 19.512H3.54566C3.12402 19.512 2.78125 19.8547 2.78125 20.2764V22.5011C2.78125 22.9228 3.12402 23.2659 3.54566 23.2659ZM3.56913 20.2995L5.74734 20.2764L5.77042 22.478L3.56913 22.5011V20.2995Z" fill="#535B81"/>
<path d="M9.10708 23.2659H11.3315C11.7531 23.2659 12.0963 22.9228 12.0963 22.5011V20.2764C12.0963 19.8547 11.7531 19.512 11.3315 19.512H9.10708C8.68544 19.512 8.34229 19.8547 8.34229 20.2764V22.5011C8.34229 22.9228 8.68544 23.2659 9.10708 23.2659ZM9.13016 20.2995L11.3084 20.2764L11.3315 22.478L9.13016 22.5011V20.2995Z" fill="#535B81"/>
<path d="M14.6687 23.2659H16.8935C17.3151 23.2659 17.6583 22.9228 17.6583 22.5011V20.2764C17.6583 19.8547 17.3151 19.512 16.8935 19.512H14.6687C14.2471 19.512 13.9043 19.8547 13.9043 20.2764V22.5011C13.9043 22.9228 14.2471 23.2659 14.6687 23.2659ZM14.6922 20.2995L16.8704 20.2764L16.8935 22.478L14.6922 22.5011V20.2995Z" fill="#535B81"/>
<path d="M17.5425 15.1316C17.3886 14.9778 17.1393 14.9778 16.9854 15.1316L15.9662 16.1508L14.9469 15.1316C14.793 14.9778 14.5437 14.9778 14.3898 15.1316C14.2359 15.2855 14.2359 15.5348 14.3898 15.6887L15.4091 16.7078L14.3898 17.7269C14.2359 17.8808 14.2359 18.13 14.3898 18.2839C14.4668 18.3609 14.5676 18.3993 14.6684 18.3993C14.7691 18.3993 14.8699 18.3609 14.9469 18.2839L15.9662 17.2648L16.9854 18.2839C17.0624 18.3609 17.1632 18.3993 17.264 18.3993C17.3648 18.3993 17.4656 18.3609 17.5425 18.2839C17.6964 18.13 17.6964 17.8808 17.5425 17.7269L16.5233 16.7078L17.5425 15.6887C17.6964 15.5348 17.6964 15.2855 17.5425 15.1316Z" fill="#535B81"/>
</svg>
