<svg width="26" height="29" viewBox="0 0 26 29" fill="none" xmlns="http://www.w3.org/2000/svg">
<path d="M0 4.39734C0 12.5982 0 20.7991 0 29H21.4398V10.4411H20.7482V28.3333H0.691629V5.06402H2.67263V11.7627C3.48003 10.9874 4.28655 10.2112 5.09333 9.43521H5.09403C5.90075 10.2112 6.70746 10.9872 7.51473 11.7627V5.06402H15.1699V4.39734H0ZM3.36426 5.06402H6.82308V10.1559L5.09401 8.49379H5.09332L3.36425 10.1559L3.36426 5.06402Z" fill="#535B81"/>
<path d="M2.68018 13.4682V14.1349H18.7599V13.4682H2.68018Z" fill="#535B81"/>
<path d="M2.68018 15.4005V16.0671H18.7599V15.4005H2.68018Z" fill="#535B81"/>
<path d="M2.68018 17.3328V17.9995H18.7599V17.3328H2.68018Z" fill="#535B81"/>
<path d="M2.68018 19.2651V19.9318H18.7599V19.2651H2.68018Z" fill="#535B81"/>
<path d="M2.68018 21.1974V21.8641H18.7599V21.1974H2.68018Z" fill="#535B81"/>
<path d="M2.68018 23.452V24.1187H10.7204V23.452H2.68018Z" fill="#535B81"/>
<path d="M15.6475 25.3408V26.0075H18.7598V25.3408H15.6475Z" fill="#535B81"/>
<path d="M21.0944 0.000162763C18.3895 0.000162763 16.1895 2.12138 16.1895 4.72868C16.1895 7.33606 18.3894 9.45661 21.0943 9.45661C23.7993 9.45661 25.9999 7.33605 25.9998 4.72858C25.9998 2.1212 23.7992 -3.33339e-06 21.0943 0L21.0944 0.000162763ZM21.0944 0.666841C23.4256 0.666841 25.3084 2.48164 25.3084 4.72874C25.3084 6.97585 23.4256 8.79002 21.0945 8.79011C18.7633 8.79011 16.8813 6.97595 16.8813 4.72884C16.8813 2.48174 18.7633 0.666941 21.0946 0.667024L21.0944 0.666841Z" fill="#535B81"/>
<path fill-rule="evenodd" clip-rule="evenodd" d="M18.4048 5.08197L19.6274 6.2605L20.1165 6.73192L23.7844 3.19632L23.2953 2.72491L20.1165 5.7891L18.8938 4.61057L18.4048 5.08197Z" fill="#535B81"/>
</svg>
