<svg width="22" height="27" viewBox="0 0 22 27" fill="none" xmlns="http://www.w3.org/2000/svg">
<path d="M0 3.28673V16.2284C0 17.1962 0.254585 18.1235 0.735529 18.9085C2.48995 21.7748 5.76358 24.3795 10.744 26.8719L10.9997 27L11.2554 26.8719C16.2364 24.3789 19.51 21.7743 21.2645 18.9091C21.7454 18.1235 22 17.1962 22 16.2284V3.28673L10.9997 0L0 3.28673ZM20.8665 16.2284C20.8665 16.9915 20.669 17.7173 20.2948 18.3283C18.6832 20.9608 15.6409 23.3876 10.9997 25.7426C6.35909 23.3881 3.3168 20.9608 1.70516 18.3277C1.33104 17.7173 1.13346 16.9915 1.13346 16.2284V4.11881L10.9997 1.17149L20.8665 4.11881V16.2284Z" fill="#535B81"/>
<path d="M2.646 5.32316V16.097C2.646 16.6335 2.78159 17.1387 3.03839 17.5592C4.38935 19.7647 6.90586 21.8236 10.7324 23.8529L11.0003 23.9952L11.2681 23.8529C15.0952 21.8236 17.6117 19.7647 18.9621 17.5592C19.2189 17.1393 19.3551 16.634 19.3551 16.097V5.32316L11.0003 2.82745L2.646 5.32316ZM10.4335 4.16816V12.8256H3.77945V6.15524L10.4335 4.16816ZM4.00802 16.9783C3.85859 16.7336 3.77945 16.4287 3.77945 16.097V13.9467H10.4335V22.4024C7.26761 20.6252 5.15155 18.8454 4.00802 16.9783ZM17.9925 16.9783C16.8494 18.8454 14.7339 20.6248 11.567 22.4024V13.9467H18.2216V16.097C18.2216 16.4287 18.1425 16.7336 17.9925 16.9783ZM18.2216 12.8256H11.567V4.16816L18.2216 6.15524V12.8256Z" fill="#535B81"/>
</svg>
