<svg width="28" height="29" viewBox="0 0 28 29" fill="none" xmlns="http://www.w3.org/2000/svg">
<path d="M26.1333 23.9057V22.648C26.1333 21.8304 25.6044 21.1386 24.8889 20.8556V10.699H25.8222C27.0356 10.699 28 9.72424 28 8.4979C28 7.33445 27.1289 6.39111 25.9778 6.29678L14.28 0.0707503C14.0933 -0.0235834 13.8756 -0.0235834 13.6889 0.0707503L2.02222 6.29678C0.871111 6.39111 0 7.33445 0 8.4979C0 9.72424 0.964444 10.699 2.17778 10.699H3.11111V20.8556C2.39556 21.1072 1.86667 21.799 1.86667 22.648V23.9057C0.84 23.9057 0 24.7547 0 25.7924V27.6791C0 28.025 0.28 28.308 0.622222 28.308H27.3778C27.72 28.308 28 28.025 28 27.6791V25.7924C28 24.7547 27.16 23.9057 26.1333 23.9057ZM14 1.35998L23.3022 6.29678H17.0489C16.7689 4.85033 15.4933 3.78121 14 3.78121C12.5067 3.78121 11.2311 4.85033 10.9511 6.29678H4.69778L14 1.35998ZM15.7733 6.29678H12.2267C12.4756 5.57355 13.16 5.03899 14 5.03899C14.84 5.03899 15.4933 5.57355 15.7733 6.29678ZM2.17778 9.44123C1.64889 9.44123 1.24444 9.00101 1.24444 8.4979C1.24444 7.96334 1.64889 7.55456 2.17778 7.55456H25.8222C26.0711 7.55456 26.32 7.64889 26.4756 7.83756C26.6311 7.99478 26.7556 8.24634 26.7556 8.4979C26.7556 9.00101 26.3511 9.44123 25.8222 9.44123H2.17778ZM16.1778 20.8556V10.699H20.5333V20.8556C19.8178 21.1072 19.2889 21.799 19.2889 22.648V23.9057H17.4222V22.648C17.4222 21.8304 16.8933 21.1386 16.1778 20.8556ZM20.5333 22.648C20.5333 22.3021 20.8133 22.0191 21.1556 22.0191H24.2667C24.6089 22.0191 24.8889 22.3021 24.8889 22.648V23.9057H20.5333V22.648ZM21.7778 20.7613V10.699H23.6444V20.7613H21.7778ZM7.46667 20.8556V10.699H11.8222V20.8556C11.1067 21.1072 10.5778 21.799 10.5778 22.648V23.9057H8.71111V22.648C8.71111 21.8304 8.18222 21.1386 7.46667 20.8556ZM11.8222 22.648C11.8222 22.3021 12.1022 22.0191 12.4444 22.0191H15.5556C15.8978 22.0191 16.1778 22.3021 16.1778 22.648V23.9057H11.8222V22.648ZM13.0667 20.7613V10.699H14.9333V20.7613H13.0667ZM6.22222 10.699V20.7613H4.35556V10.699H6.22222ZM3.11111 22.648C3.11111 22.3021 3.39111 22.0191 3.73333 22.0191H6.84444C7.18667 22.0191 7.46667 22.3021 7.46667 22.648V23.9057H3.11111V22.648ZM26.7556 27.0502H1.24444V25.7924C1.24444 25.4465 1.52444 25.1635 1.86667 25.1635H26.1333C26.4756 25.1635 26.7556 25.4465 26.7556 25.7924V27.0502Z" fill="#535B81"/>
</svg>
