<svg width="26" height="29" viewBox="0 0 26 29" fill="none" xmlns="http://www.w3.org/2000/svg">
<path d="M12.1116 18.3236H2.79265C2.58416 18.3236 2.41357 18.1641 2.41357 17.9693V0.354307C2.41357 0.159438 2.58416 0 2.79265 0H16.9638C17.1723 0 17.3429 0.159438 17.3429 0.354307V15.7785C17.3429 15.8847 17.2923 15.991 17.1975 16.056C17.1028 16.121 16.989 16.1446 16.8753 16.121C16.5721 16.0501 16.2625 16.0147 15.9529 16.0147C14.9294 16.0147 13.9628 16.3867 13.2362 17.0658C12.9077 17.3728 12.6486 17.7271 12.4591 18.111C12.3959 18.2409 12.2569 18.3236 12.1116 18.3236ZM3.17173 17.6149H11.8715C12.0863 17.2311 12.3643 16.8827 12.6929 16.5697C13.5647 15.7607 14.7146 15.312 15.9466 15.312C16.1614 15.312 16.3762 15.3238 16.5847 15.3533V0.708613H3.17173V17.6149Z" fill="#535B81"/>
<path d="M11.7387 20.1778H0.379076C0.170584 20.1778 0 20.0183 0 19.8235V2.21441C0 2.01955 0.170584 1.86011 0.379076 1.86011H2.79253C3.00102 1.86011 3.1716 2.01955 3.1716 2.21441V17.6149H12.1052C12.2315 17.6149 12.3516 17.674 12.4211 17.7803C12.4906 17.8866 12.5032 18.0106 12.4463 18.1169C12.1936 18.6365 12.0736 19.2093 12.1052 19.7762C12.1052 19.7939 12.1115 19.8057 12.1115 19.8235C12.1178 20.0183 11.9472 20.1778 11.7387 20.1778ZM0.758152 19.4691H11.3533C11.366 19.0794 11.4355 18.6956 11.5618 18.3236H2.79253C2.58404 18.3236 2.41345 18.1641 2.41345 17.9693V2.56872H0.758152V19.4691Z" fill="#535B81"/>
<path d="M14.5188 4.61779H10.0646C9.85613 4.61779 9.68555 4.45836 9.68555 4.26349C9.68555 4.06862 9.85613 3.90918 10.0646 3.90918H14.5124C14.7209 3.90918 14.8915 4.06862 14.8915 4.26349C14.8915 4.45836 14.7273 4.61779 14.5188 4.61779Z" fill="#535B81"/>
<path d="M14.5188 9.51318H10.0646C9.85613 9.51318 9.68555 9.35374 9.68555 9.15887C9.68555 8.964 9.85613 8.80457 10.0646 8.80457H14.5124C14.7209 8.80457 14.8915 8.964 14.8915 9.15887C14.8915 9.35374 14.7273 9.51318 14.5188 9.51318Z" fill="#535B81"/>
<path d="M5.57862 5.35592C5.56598 5.35592 5.54703 5.35592 5.53439 5.35592C5.42699 5.34411 5.33222 5.29096 5.26904 5.21419L4.73833 4.5292C4.61829 4.36976 4.6562 4.15127 4.82679 4.03317C4.99737 3.92097 5.23113 3.9564 5.35749 4.11584L5.6418 4.48786L7.1581 3.2537C7.31605 3.12378 7.55613 3.1415 7.69513 3.28913C7.83412 3.43675 7.81517 3.66115 7.65722 3.79106L5.83134 5.26734C5.76184 5.32639 5.67339 5.35592 5.57862 5.35592Z" fill="#535B81"/>
<path d="M5.76836 10.2218C5.6736 10.2218 5.58514 10.1923 5.50933 10.1273C5.3577 9.9974 5.34506 9.77301 5.49038 9.62538L6.88664 8.21406C7.02563 8.07234 7.26571 8.06053 7.42366 8.19634C7.57529 8.32626 7.58793 8.55065 7.44262 8.69828L6.04635 10.1096C5.97686 10.1864 5.86945 10.2218 5.76836 10.2218Z" fill="#535B81"/>
<path d="M7.16459 10.2218C7.0635 10.2218 6.96242 10.1864 6.8866 10.1096L5.49034 8.69828C5.35134 8.55656 5.35766 8.33216 5.50929 8.19635C5.66092 8.06643 5.901 8.07234 6.04632 8.21406L7.44258 9.62538C7.58157 9.76711 7.57526 9.9915 7.42363 10.1273C7.34781 10.1923 7.25936 10.2218 7.16459 10.2218Z" fill="#535B81"/>
<path d="M5.57862 15.1585C5.56598 15.1585 5.54703 15.1585 5.53439 15.1585C5.42699 15.1466 5.33222 15.0935 5.26904 15.0108L4.73833 14.3199C4.61829 14.1605 4.6562 13.942 4.82679 13.8239C4.99737 13.7058 5.23113 13.7471 5.35749 13.9066L5.6418 14.2786L7.1581 13.0503C7.31605 12.9204 7.55613 12.9381 7.69513 13.0858C7.83412 13.2334 7.81517 13.4578 7.65722 13.5877L5.83134 15.0699C5.76184 15.1289 5.67339 15.1585 5.57862 15.1585Z" fill="#535B81"/>
<path d="M14.5188 14.4144H10.0646C9.85613 14.4144 9.68555 14.255 9.68555 14.0601C9.68555 13.8652 9.85613 13.7058 10.0646 13.7058H14.5124C14.7209 13.7058 14.8915 13.8652 14.8915 14.0601C14.8915 14.255 14.7273 14.4144 14.5188 14.4144Z" fill="#535B81"/>
<path d="M15.9463 23.898C14.7206 23.898 13.5644 23.4492 12.6989 22.6402C10.9109 20.9631 10.9109 18.2409 12.6989 16.5638C13.5644 15.7548 14.7206 15.306 15.9463 15.306C17.172 15.306 18.3282 15.7548 19.2 16.5638C20.988 18.2409 20.988 20.9631 19.2 22.6402C18.3282 23.4551 17.172 23.898 15.9463 23.898ZM15.9463 16.0146C14.9228 16.0146 13.9562 16.3867 13.2296 17.0658C11.7386 18.4653 11.7386 20.7387 13.2296 22.1441C13.9562 22.8232 14.9165 23.1953 15.94 23.1953C16.9635 23.1953 17.9301 22.8232 18.6567 22.1441C20.1541 20.7446 20.1541 18.4653 18.6567 17.0717C17.9365 16.3867 16.9698 16.0146 15.9463 16.0146Z" fill="#535B81"/>
<path d="M19.4717 24.0633C19.3706 24.0633 19.2759 24.0279 19.2064 23.957L18.1955 23.0122C18.1197 22.9413 18.0754 22.835 18.0881 22.7346C18.0944 22.6342 18.1513 22.5398 18.2397 22.4748C18.3787 22.3803 18.524 22.2622 18.663 22.1382C18.8083 21.9965 18.9284 21.8725 19.0295 21.7426C19.0926 21.6599 19.1937 21.6068 19.3074 21.6009C19.4148 21.5949 19.5286 21.6304 19.6044 21.7012L20.6153 22.6461C20.7606 22.7819 20.7606 23.0063 20.6153 23.148L19.7497 23.957C19.6739 24.0279 19.5728 24.0633 19.4717 24.0633ZM19.0295 22.7937L19.478 23.2129L19.8129 22.9L19.3643 22.4807C19.3138 22.5339 19.2632 22.587 19.2064 22.6402L19.2 22.6461C19.1369 22.6933 19.0863 22.7464 19.0295 22.7937Z" fill="#535B81"/>
<path d="M24.5072 29C24.1028 29 23.7301 28.8524 23.4458 28.5866L18.8526 24.2936C18.7073 24.1578 18.7073 23.9334 18.8526 23.7917L20.4321 22.3154C20.5016 22.2504 20.6027 22.2091 20.6975 22.2091C20.7986 22.2091 20.8933 22.2445 20.9628 22.3154L25.5623 26.6143C26.1372 27.1517 26.1435 28.0138 25.5939 28.563C25.5876 28.5748 25.5749 28.5866 25.5623 28.5925C25.278 28.8524 24.9052 29 24.5072 29ZM19.655 24.0456L23.9828 28.0906C24.1218 28.2205 24.305 28.2914 24.5072 28.2914C24.6967 28.2914 24.8673 28.2264 25.0063 28.1083C25.0126 28.1024 25.0189 28.0906 25.0253 28.0847C25.3096 27.8131 25.3096 27.3761 25.0253 27.1103L20.6975 23.0653L19.655 24.0456Z" fill="#535B81"/>
<path d="M17.2353 19.227H14.5944C14.3859 19.227 14.2153 19.0676 14.2153 18.8727C14.2153 18.6779 14.3859 18.5184 14.5944 18.5184H17.2353C17.4438 18.5184 17.6144 18.6779 17.6144 18.8727C17.6144 19.0676 17.4438 19.227 17.2353 19.227Z" fill="#535B81"/>
<path d="M17.2353 20.7211H14.5944C14.3859 20.7211 14.2153 20.5616 14.2153 20.3668C14.2153 20.1719 14.3859 20.0125 14.5944 20.0125H17.2353C17.4438 20.0125 17.6144 20.1719 17.6144 20.3668C17.6144 20.5616 17.4438 20.7211 17.2353 20.7211Z" fill="#535B81"/>
</svg>
