<svg width="26" height="28" viewBox="0 0 26 28" fill="none" xmlns="http://www.w3.org/2000/svg">
<path d="M20.0608 7.57547C19.96 7.48213 19.8275 7.44129 19.7002 7.47046L19.1275 7.59881C18.2472 7.79716 17.3298 7.59881 16.5768 7.04459L14.4769 5.50443C14.864 5.16607 15.3942 5.10773 15.8344 5.35275L17.8866 6.48453C18.0987 6.60121 18.3533 6.50787 18.454 6.27451C18.5123 6.14033 18.5123 5.98865 18.454 5.85447L16.7571 2.12076C16.6775 1.93991 16.4972 1.84074 16.3169 1.86991L14.8746 2.09743C14.3284 2.18494 13.7981 1.87574 13.5541 1.33319L16.6828 0.948147L21.2115 5.02605C21.2221 5.03189 21.2274 5.03772 21.238 5.04939L25.4803 8.31638L25.9682 7.55214L21.7365 4.29681L17.0806 0.108064C16.9904 0.0263889 16.8791 -0.0086145 16.7677 0.00305332L12.9496 0.469766C12.7163 0.498936 12.5466 0.726459 12.5731 0.983151C12.5731 1.00649 12.5784 1.02399 12.5837 1.04732L12.6368 1.28068C12.6474 1.32152 12.658 1.36235 12.6686 1.40319L9.7679 0.0380568C9.66714 -0.00861448 9.55578 -0.0144484 9.44973 0.0322229L6.52254 1.23984C6.14603 1.39736 5.81195 1.66572 5.56802 2.02742L3.37263 5.24774L0.0477259 7.53463L0.49847 8.32805L3.89231 5.99448C3.93473 5.96531 3.97716 5.92447 4.00897 5.8778L6.25739 2.58164C6.40057 2.36579 6.60208 2.20244 6.8301 2.1091L9.5982 0.965649L11.9898 2.09743C11.73 2.4708 11.3057 2.66332 10.8815 2.59331L9.23761 2.33662C9.06792 2.30745 8.89823 2.40079 8.80808 2.56997L7.11116 5.83697C6.99449 6.05865 7.06343 6.34452 7.27024 6.47286C7.3763 6.53704 7.49827 6.55454 7.61493 6.50787L10.0383 5.62111C10.6323 5.40526 11.2739 5.69112 11.5656 6.29785L9.00959 7.50546C8.94595 7.53463 8.88762 7.58131 8.8452 7.64548L8.81338 7.69215C7.9225 8.91144 6.43769 9.38982 5.09076 8.89977L5.06955 8.89394C4.93167 8.84143 4.77789 8.87643 4.66653 8.97561L0 13.176L0.53559 13.8994L3.66429 11.0817V24.2663H2.3916C2.15827 24.2663 1.96737 24.4763 1.96737 24.733V25.6664C1.96737 26.9557 2.91658 28 4.08852 28H20.2093C21.3812 28 22.3304 26.9557 22.3304 25.6664V10.9475L25.4485 13.8878L26 13.1819L20.0608 7.57547ZM14.9965 3.01919L16.1473 2.83833L17.1389 5.02022L16.2215 4.5185C15.8344 4.30265 15.3942 4.22681 14.97 4.29681L15.0973 3.87677C15.1397 3.74259 15.1185 3.59091 15.0496 3.4684L14.7897 3.03669C14.8587 3.03669 14.9276 3.03085 14.9965 3.01919ZM12.9549 3.94094C13.0027 3.8301 13.0133 3.70175 12.9761 3.58508L12.6845 2.62831C12.8011 2.4533 12.8913 2.26078 12.9602 2.05659C13.114 2.30161 13.3155 2.51164 13.5382 2.66915L14.2223 3.80093L13.9147 4.8102C13.7557 4.95605 13.6178 5.12523 13.5064 5.31191L13.4905 5.34108C13.4322 5.44026 13.4057 5.55694 13.4269 5.67362L13.8246 8.29304L13.0716 9.5415C12.992 9.66985 12.9814 9.8332 13.0292 9.97321L13.8034 12.1026L12.5572 14.617L12.992 11.7467C13.0133 11.6184 12.9814 11.49 12.9125 11.3909L11.8307 9.79819L12.9125 8.21137C12.9973 8.08886 13.0186 7.93134 12.9761 7.78549L12.5519 6.38535C12.5466 6.36202 12.536 6.34452 12.5307 6.32118L12.3398 5.90114C12.2974 5.80196 12.2443 5.70862 12.1913 5.62111L12.9549 3.94094ZM11.5391 4.95605C11.0088 4.60018 10.3618 4.5185 9.7679 4.73436L8.39976 5.23607L9.402 3.30505L10.7595 3.5209C11.1838 3.58508 11.6133 3.5034 11.9898 3.28755L12.1118 3.69592L11.5391 4.95605ZM4.08852 27.0666C3.38854 27.0666 2.81583 26.4365 2.81583 25.6664V25.1997H18.0881V25.6664C18.0881 26.174 18.2366 26.664 18.5123 27.0666H4.08852ZM21.4819 25.6664C21.4819 26.4423 20.9145 27.0666 20.2093 27.0666C19.504 27.0666 18.9366 26.4423 18.9366 25.6664V24.733C18.9366 24.4763 18.7457 24.2663 18.5123 24.2663H4.51275V10.3174L5.02713 9.8507C6.6445 10.3407 8.37324 9.73985 9.43912 8.31638L11.889 7.16126L12.0959 7.84967L10.9557 9.51816C10.8444 9.68151 10.8444 9.91487 10.9557 10.0782L12.1171 11.7876L11.3004 17.1898C11.2633 17.4465 11.4171 17.6856 11.6504 17.7265C11.8307 17.7615 12.0057 17.6623 12.0906 17.4873L14.6359 12.3534C14.6943 12.2309 14.7049 12.0851 14.6571 11.9567L13.8988 9.8507L14.6253 8.65475C14.6837 8.55557 14.7102 8.43889 14.689 8.31638L14.4238 6.57787L16.1101 7.81466C17.0434 8.50306 18.1942 8.75392 19.2972 8.5089L19.6631 8.42722L21.4819 10.1482V25.6664Z" fill="#535B81"/>
<path d="M19.7847 9.79816H15.1182V10.7316H19.7847V9.79816Z" fill="#535B81"/>
<path d="M19.7848 12.1317H15.5425V13.0651H19.7848V12.1317Z" fill="#535B81"/>
<path d="M10.8765 12.1317H6.20996V13.0651H10.8765V12.1317Z" fill="#535B81"/>
<path d="M10.4523 14.4653H6.20996V15.3987H10.4523V14.4653Z" fill="#535B81"/>
<path d="M19.7851 14.4653H14.6943V15.3987H19.7851V14.4653Z" fill="#535B81"/>
<path d="M19.7853 16.7989H13.4219V17.7323H19.7853V16.7989Z" fill="#535B81"/>
<path d="M18.9366 20.0659H14.6943V20.9993H18.9366V20.0659Z" fill="#535B81"/>
<path d="M10.4523 16.7989H6.20996V17.7323H10.4523V16.7989Z" fill="#535B81"/>
<path d="M18.0879 21.9327H15.5425V22.8661H18.0879V21.9327Z" fill="#535B81"/>
<path d="M11.3004 20.0659H7.05811V20.9993H11.3004V20.0659Z" fill="#535B81"/>
<path d="M10.4516 21.9327H7.90625V22.8661H10.4516V21.9327Z" fill="#535B81"/>
</svg>
